<svg xmlns="http://www.w3.org/2000/svg" width="67" height="40" viewBox="0 0 67 40">
    <path fill="#4C7540" fill-rule="evenodd" d="M60.177 8.288l-14.225 25.14c-.438.774-1.165.858-1.457.858-.292 0-1.018-.084-1.456-.858l-6.304-11.141 8.892-15.715c.299-.53.857-.858 1.456-.858H58.72c.877 0 1.31.6 1.457.859.146.257.438.941 0 1.715zm-37.093 25.14c-.439.774-1.165.858-1.457.858-.292 0-1.018-.084-1.457-.858L5.946 8.288c-.438-.774-.146-1.458 0-1.715.146-.259.58-.859 1.456-.859H19.04c.599 0 1.156.329 1.456.858l8.892 15.715-6.304 11.14zM65.119 3.715C63.779 1.389 61.383 0 58.706 0H46.872c-2.637 0-5.094 1.423-6.413 3.715l-7.398 12.857-7.398-12.857C24.345 1.423 21.887 0 19.251 0H7.417C4.74 0 2.342 1.389 1.004 3.715c-1.339 2.326-1.339 5.104 0 7.43l14.465 25.14C16.807 38.611 19.205 40 21.882 40s5.074-1.39 6.412-3.715l4.767-8.284 4.767 8.284C39.166 38.611 41.564 40 44.241 40s5.074-1.39 6.413-3.715l14.465-25.14c1.338-2.326 1.338-5.104 0-7.43z"/>
</svg>
