<svg xmlns="http://www.w3.org/2000/svg" width="30" height="30" viewBox="0 0 30 30">
    <g fill="none" fill-rule="evenodd">
        <path d="M0 0H30V30H0z"/>
        <path fill="#FFF" fill-rule="nonzero" d="M23.75 10.58v.58c-.002 3.385-1.361 6.627-3.772 9.003-2.411 2.375-5.674 3.685-9.058 3.637-2.45.007-4.851-.687-6.92-2 .359.04.72.06 1.08.06 2.026.01 3.998-.66 5.6-1.9-1.916-.026-3.606-1.262-4.21-3.08.28.053.565.08.85.08.399-.001.795-.055 1.18-.16-2.09-.4-3.606-2.222-3.62-4.35v-.06c.632.34 1.333.532 2.05.56-1.246-.82-1.997-2.21-2-3.7-.007-.79.2-1.568.6-2.25 2.313 2.787 5.692 4.471 9.31 4.64-.08-.327-.12-.663-.12-1 .022-2.47 2.04-4.457 4.51-4.44 1.245-.002 2.437.503 3.3 1.4 1.007-.197 1.974-.562 2.86-1.08-.345 1.036-1.056 1.911-2 2.46.893-.103 1.766-.339 2.59-.7-.605.896-1.367 1.676-2.25 2.3"/>
    </g>
</svg>
