<svg xmlns="http://www.w3.org/2000/svg" width="30" height="30" viewBox="0 0 30 30">
    <g fill="none" fill-rule="evenodd">
        <path d="M0 0H30V30H0z"/>
        <path fill="#FFF" fill-rule="nonzero" d="M5.5 24.5h4.22V11.83H5.5V24.5zm2.12-19c-.57-.035-1.129.175-1.534.579-.405.403-.619.96-.586 1.531-.031.562.175 1.11.57 1.512.393.401.938.619 1.5.598.57.035 1.129-.175 1.534-.579.405-.403.619-.96.586-1.531.031-.562-.175-1.11-.57-1.512-.393-.401-.938-.619-1.5-.598zM24.5 17.4v7.1h-4.15v-6.62c0-1.66-.6-2.8-2.1-2.8-.957.004-1.81.608-2.13 1.51-.108.322-.155.66-.14 1v6.91h-4.15s.06-11.21 0-12.38H16v1.76c.773-1.32 2.21-2.109 3.74-2.05 2.71 0 4.76 1.77 4.76 5.57z"/>
    </g>
</svg>
