<svg xmlns="http://www.w3.org/2000/svg" xmlns:xlink="http://www.w3.org/1999/xlink" width="1440" height="322" viewBox="0 0 1440 322">
    <defs>
        <path id="prefix__a" d="M0.936 0H1440.936V322H0.936z"/>
    </defs>
    <g fill="none" fill-rule="evenodd" transform="translate(-1)">
        <mask id="prefix__b" fill="#fff">
            <use xlink:href="#prefix__a"/>
        </mask>
        <use fill="#4C7540" xlink:href="#prefix__a"/>
        <path fill="#000" d="M1426.922 150.073c-1.399 2.427-3.719 2.69-4.652 2.69-.931 0-3.251-.263-4.651-2.69l-20.133-34.913 28.398-49.245c.956-1.658 2.738-2.688 4.65-2.688h37.168c2.8 0 4.186 1.88 4.652 2.689.466.808 1.4 2.951 0 5.378l-45.432 78.78zm45.432 102.065c1.4 2.426.466 4.568 0 5.377-.466.81-1.853 2.69-4.652 2.69h-37.168c-1.911 0-3.694-1.031-4.65-2.688l-28.398-49.246 20.133-34.913c1.4-2.427 3.72-2.689 4.651-2.689.933 0 3.253.262 4.652 2.689l45.432 78.78zm0 35.035l-45.432 78.779c-1.399 2.427-3.719 2.689-4.652 2.689-.931 0-3.251-.262-4.651-2.69l-20.133-34.913 28.398-49.245c.956-1.658 2.738-2.687 4.65-2.687h37.168c2.8 0 4.186 1.88 4.652 2.688.466.809 1.4 2.952 0 5.379zm0 180.843c1.4 2.427.466 4.57 0 5.378-.466.808-1.853 2.689-4.652 2.689h-37.168c-1.911 0-3.694-1.03-4.65-2.688l-28.398-49.245 20.133-34.914c1.4-2.426 3.72-2.688 4.651-2.688.933 0 3.253.262 4.652 2.688l45.432 78.78zm0 34.04l-45.432 78.78c-1.399 2.426-3.719 2.689-4.652 2.689-.931 0-3.251-.263-4.651-2.689l-20.133-34.914 28.398-49.245c.956-1.658 2.738-2.687 4.65-2.687h37.168c2.8 0 4.186 1.88 4.652 2.688.466.809 1.4 2.951 0 5.378zm-107.883-15.34c-.54-.94-1.148-1.832-1.804-2.675.657-.842 1.263-1.734 1.804-2.676l23.066-40.101 23.067 40.101c.54.942 1.147 1.834 1.804 2.676-.657.843-1.263 1.735-1.804 2.676l-23.067 40.102-23.066-40.102zm-8.01 94.12c-1.4 2.426-3.72 2.689-4.652 2.689-.933 0-3.253-.263-4.652-2.689l-45.43-78.78c-1.4-2.427-.468-4.57-.001-5.378.467-.808 1.852-2.688 4.652-2.688h37.167c1.913 0 3.695 1.029 4.65 2.687l28.4 49.245-20.134 34.914zm-63.93-132.609l-39.486-68.93c-.545-.952-1.148-1.85-1.8-2.697.652-.848 1.255-1.746 1.8-2.697l39.486-68.931 39.487 68.931c.544.95 1.147 1.848 1.799 2.696-.652.848-1.255 1.746-1.8 2.698l-39.486 68.93zm-10.19 53.83l-45.43 78.78c-1.4 2.425-3.72 2.688-4.652 2.688-.934 0-3.253-.263-4.652-2.689l-20.134-34.914 28.399-49.245c.956-1.658 2.737-2.687 4.65-2.687h37.168c2.799 0 4.185 1.88 4.65 2.688.468.809 1.4 2.951 0 5.378zm-108.877-15.34c-.542-.941-1.148-1.833-1.805-2.676.658-.842 1.263-1.734 1.805-2.676l23.065-40.101 23.066 40.101c.542.942 1.148 1.834 1.806 2.676-.658.843-1.265 1.735-1.806 2.676l-23.066 40.102-23.065-40.102zm-7.015 94.12c-1.4 2.425-3.72 2.688-4.652 2.688-.933 0-3.253-.263-4.652-2.689l-45.431-78.78c-1.4-2.427-.467-4.57 0-5.378.465-.808 1.852-2.688 4.65-2.688h37.17c1.911 0 3.694 1.029 4.65 2.687l28.397 49.245-20.132 34.914zm-64.925-132.61l-39.487-68.93c-.544-.952-1.148-1.85-1.8-2.697.652-.848 1.256-1.746 1.8-2.697l39.487-68.931 39.485 68.931c.546.95 1.149 1.848 1.8 2.696-.651.848-1.255 1.746-1.8 2.698l-39.485 68.93zm-9.196 53.83l-45.43 78.78c-1.4 2.425-3.72 2.688-4.653 2.688-.932 0-3.252-.263-4.65-2.689l-20.135-34.914 28.4-49.245c.955-1.658 2.736-2.687 4.649-2.687h37.167c2.8 0 4.185 1.88 4.652 2.688.466.809 1.4 2.951 0 5.378zm-108.877-15.34c-.541-.941-1.149-1.833-1.805-2.676.656-.842 1.264-1.734 1.805-2.676l23.066-40.101 23.066 40.101c.541.942 1.147 1.834 1.805 2.676-.658.843-1.265 1.735-1.806 2.676l-23.065 40.102-23.066-40.102zm-8.01 94.12c-1.4 2.425-3.72 2.688-4.653 2.688-.932 0-3.252-.263-4.652-2.689l-45.43-78.78c-1.4-2.427-.467-4.57-.001-5.378.466-.808 1.853-2.688 4.652-2.688h37.168c1.912 0 3.695 1.029 4.65 2.687l28.399 49.245-20.133 34.914zm-63.93-132.61l-39.487-68.93c-.545-.952-1.148-1.85-1.8-2.697.652-.848 1.255-1.746 1.8-2.697l39.487-68.931 39.486 68.931c.544.95 1.148 1.848 1.799 2.696-.651.848-1.255 1.746-1.8 2.698l-39.486 68.93zm-9.196 53.83l-45.43 78.78c-1.4 2.425-3.72 2.688-4.652 2.688-.932 0-3.253-.263-4.652-2.689l-20.134-34.914 28.4-49.245c.955-1.658 2.737-2.687 4.648-2.687h37.169c2.799 0 4.185 1.88 4.65 2.688.468.809 1.4 2.951 0 5.378zm-108.876-15.34c-.542-.941-1.148-1.833-1.806-2.676.658-.842 1.264-1.734 1.806-2.676l23.064-40.101 23.066 40.101c.541.942 1.147 1.834 1.806 2.676-.659.843-1.265 1.735-1.806 2.676l-23.066 40.102-23.064-40.102zm-8.012 94.12c-1.4 2.425-3.72 2.688-4.652 2.688-.932 0-3.252-.263-4.652-2.689l-45.43-78.78c-1.4-2.427-.467-4.57 0-5.378.465-.808 1.852-2.688 4.65-2.688h37.17c1.91 0 3.693 1.029 4.65 2.687l28.398 49.245-20.134 34.914zm-63.93-132.61l-39.486-68.93c-.544-.952-1.148-1.85-1.8-2.697.652-.848 1.256-1.746 1.8-2.697l39.486-68.931 39.487 68.931c.545.95 1.147 1.848 1.799 2.696-.652.848-1.254 1.746-1.8 2.698l-39.486 68.93zm-10.19 53.83l-45.43 78.78c-1.4 2.425-3.72 2.688-4.652 2.688-.933 0-3.253-.263-4.651-2.689l-20.135-34.914 28.399-49.245c.956-1.658 2.738-2.687 4.65-2.687h37.167c2.8 0 4.185 1.88 4.652 2.688.466.809 1.4 2.951 0 5.378zm-107.882-15.34c-.54-.941-1.147-1.833-1.805-2.676.658-.842 1.264-1.734 1.805-2.676l23.066-40.101 23.066 40.101c.54.942 1.148 1.834 1.805 2.676-.657.843-1.265 1.735-1.806 2.676l-23.065 40.102-23.066-40.102zm-8.012 94.12c-1.399 2.425-3.718 2.688-4.65 2.688-.934 0-3.253-.263-4.653-2.689l-45.43-78.78c-1.4-2.427-.466-4.57 0-5.378.466-.808 1.853-2.688 4.652-2.688h37.167c1.913 0 3.693 1.029 4.65 2.687l28.399 49.245-20.135 34.914zm-63.93-132.61l-39.485-68.93c-.546-.952-1.148-1.85-1.799-2.697.65-.848 1.254-1.746 1.8-2.697l39.485-68.931 39.487 68.931c.544.95 1.147 1.848 1.799 2.696-.652.848-1.255 1.746-1.8 2.698l-39.486 68.93zm-10.189 53.83l-45.43 78.78c-1.4 2.425-3.72 2.688-4.653 2.688-.932 0-3.252-.263-4.652-2.689l-20.133-34.914 28.398-49.245c.956-1.658 2.738-2.687 4.65-2.687h37.17c2.797 0 4.184 1.88 4.65 2.688.466.809 1.4 2.951 0 5.378zm-107.88-15.34c-.543-.941-1.149-1.833-1.807-2.676.659-.842 1.264-1.734 1.806-2.676l23.065-40.101 23.065 40.101c.542.942 1.148 1.834 1.806 2.676-.658.843-1.264 1.735-1.806 2.676l-23.065 40.102-23.065-40.102zm-8.013 94.12c-1.4 2.425-3.719 2.688-4.652 2.688-.932 0-3.251-.263-4.652-2.689l-45.43-78.78c-1.4-2.427-.467-4.57 0-5.378.466-.808 1.852-2.688 4.651-2.688h37.168c1.912 0 3.694 1.029 4.65 2.687l28.399 49.245-20.134 34.914zm-63.93-132.61l-39.486-68.93c-.544-.952-1.148-1.85-1.799-2.697.65-.848 1.256-1.746 1.8-2.697l39.485-68.931 39.487 68.931c.545.95 1.147 1.848 1.8 2.696-.653.848-1.256 1.746-1.8 2.698l-39.487 68.93zm-11.184 53.83l-45.43 78.78c-1.4 2.425-3.72 2.688-4.653 2.688-.932 0-3.252-.263-4.651-2.689l-20.134-34.914 28.398-49.245c.956-1.658 2.738-2.687 4.65-2.687h37.168c2.8 0 4.185 1.88 4.652 2.688.466.809 1.399 2.951 0 5.378zm-106.888-15.34c-.541-.941-1.147-1.833-1.805-2.676.658-.842 1.264-1.734 1.805-2.676l23.066-40.101 23.066 40.101c.541.942 1.149 1.834 1.805 2.676-.656.843-1.264 1.735-1.805 2.676l-23.066 40.102-23.066-40.102zm-8.01 94.12c-1.4 2.425-3.72 2.688-4.652 2.688-.933 0-3.253-.263-4.652-2.689l-45.43-78.78c-1.4-2.427-.468-4.57-.002-5.378.467-.808 1.853-2.688 4.652-2.688h37.168c1.912 0 3.694 1.029 4.65 2.687l28.399 49.245-20.134 34.914zm-64.925-132.61l-39.486-68.93c-.545-.952-1.148-1.85-1.8-2.697.652-.848 1.255-1.746 1.8-2.697l39.486-68.931 39.487 68.931c.544.95 1.147 1.848 1.798 2.696-.65.848-1.254 1.746-1.8 2.698l-39.485 68.93zm-10.191 53.83l-45.43 78.78c-1.4 2.425-3.719 2.688-4.652 2.688-.933 0-3.252-.263-4.652-2.689l-20.133-34.914 28.399-49.245c.955-1.658 2.737-2.687 4.648-2.687h37.17c2.798 0 4.185 1.88 4.65 2.688.467.809 1.4 2.951 0 5.378zm-107.881-15.34c-.542-.941-1.148-1.833-1.805-2.676.657-.842 1.263-1.734 1.805-2.676l23.066-40.101 23.066 40.101c.54.942 1.146 1.834 1.804 2.676-.658.843-1.263 1.735-1.804 2.676l-23.066 40.102-23.066-40.102zm-7.016 94.12c-1.4 2.425-3.72 2.688-4.652 2.688-.933 0-3.252-.263-4.651-2.689l-45.432-78.78c-1.4-2.427-.467-4.57 0-5.378.466-.808 1.852-2.688 4.651-2.688H12.46c1.913 0 3.695 1.029 4.65 2.687l28.399 49.245-20.133 34.914zm-54.735-112.82l45.43-78.78c1.4-2.427 3.72-2.69 4.653-2.69.932 0 3.252.263 4.651 2.69L45.51 424.15l-28.398 49.245c-.957 1.658-2.738 2.688-4.65 2.688h-37.169c-2.799 0-4.185-1.88-4.651-2.69-.467-.807-1.4-2.95 0-5.377zm0-180.844c-1.4-2.427-.467-4.57 0-5.379.466-.808 1.852-2.688 4.651-2.688H12.46c1.913 0 3.695 1.03 4.65 2.687l28.399 49.245-20.133 34.914c-1.4 2.427-3.72 2.689-4.652 2.689-.933 0-3.252-.262-4.651-2.69l-45.432-78.778zm0-35.035l45.43-78.78c1.4-2.427 3.72-2.689 4.653-2.689.932 0 3.252.262 4.651 2.689L45.51 208.27l-28.398 49.246c-.957 1.657-2.738 2.687-4.65 2.687h-37.169c-2.799 0-4.185-1.88-4.651-2.689-.467-.808-1.4-2.95 0-5.377zm0-180.844c-1.4-2.427-.467-4.57 0-5.378.466-.808 1.852-2.689 4.651-2.689H12.46c1.913 0 3.695 1.03 4.65 2.688L45.51 115.16l-20.133 34.913c-1.4 2.427-3.72 2.69-4.652 2.69-.933 0-3.252-.263-4.651-2.69L-29.36 71.294zm0-34.04l45.43-78.78c1.4-2.427 3.72-2.688 4.653-2.688.932 0 3.252.261 4.651 2.688L45.51-6.613 17.111 42.633c-.957 1.657-2.738 2.687-4.65 2.687h-37.169c-2.799 0-4.185-1.88-4.651-2.689-.467-.808-1.4-2.95 0-5.376zm0-180.845c-1.4-2.426-.467-4.568 0-5.378.466-.808 1.852-2.687 4.651-2.687H12.46c1.913 0 3.695 1.029 4.65 2.686L45.51-99.724 25.376-64.81c-1.4 2.427-3.72 2.69-4.652 2.69-.933 0-3.252-.263-4.651-2.69l-45.432-78.78zm0-34.038l45.43-78.78c1.4-2.428 3.72-2.69 4.653-2.69.932 0 3.252.262 4.651 2.69l20.134 34.913-28.398 49.246c-.957 1.657-2.738 2.687-4.65 2.687h-37.169c-2.799 0-4.185-1.88-4.651-2.689-.467-.808-1.4-2.951 0-5.377zM78.524-164.28c.54.941 1.146 1.832 1.804 2.675-.658.843-1.263 1.734-1.804 2.675l-23.066 40.103-23.066-40.103c-.542-.94-1.148-1.832-1.805-2.675.657-.843 1.263-1.734 1.805-2.675l23.066-40.102 23.066 40.102zm7.015-92.13c1.4-2.427 3.72-2.688 4.652-2.688.933 0 3.253.261 4.652 2.688l45.43 78.78c1.4 2.427.467 4.57 0 5.378-.465.809-1.852 2.689-4.65 2.689h-37.17c-1.91 0-3.693-1.03-4.648-2.687l-28.4-49.246L85.54-256.41zm54.734 112.82l-45.43 78.78c-1.4 2.426-3.719 2.689-4.652 2.689-.933 0-3.252-.263-4.652-2.69L65.406-99.724l28.399-49.246c.955-1.657 2.737-2.686 4.648-2.686h37.17c2.798 0 4.185 1.88 4.65 2.687.467.81 1.4 2.952 0 5.378zm10.191 17.8l39.487 68.93c.544.95 1.147 1.848 1.798 2.696-.65.849-1.254 1.747-1.8 2.698l-39.485 68.931-39.486-68.931c-.545-.95-1.148-1.849-1.8-2.697.652-.848 1.255-1.746 1.8-2.696l39.486-68.932zm10.19-23.179c.466-.808 1.852-2.687 4.651-2.687h37.168c1.912 0 3.694 1.029 4.65 2.686l28.399 49.246-20.134 34.913c-1.4 2.427-3.719 2.69-4.651 2.69-.933 0-3.253-.263-4.652-2.69l-45.43-78.78c-1.4-2.426-.468-4.568-.002-5.378zm0-28.66l45.43-78.78c1.4-2.428 3.72-2.69 4.653-2.69.932 0 3.251.262 4.651 2.69l20.134 34.913-28.399 49.246c-.956 1.657-2.738 2.687-4.65 2.687h-37.168c-2.798 0-4.185-1.88-4.652-2.689-.465-.808-1.399-2.951 0-5.377zM269.53-164.28c.541.941 1.149 1.832 1.805 2.675-.656.843-1.264 1.734-1.805 2.675l-23.066 40.103L223.4-158.93c-.541-.94-1.147-1.832-1.805-2.675.658-.843 1.264-1.734 1.805-2.675l23.066-40.102 23.066 40.102zm6.022-92.13c1.399-2.427 3.719-2.688 4.651-2.688.933 0 3.252.261 4.652 2.688l45.43 78.78c1.4 2.427.467 4.57 0 5.378-.466.809-1.852 2.689-4.651 2.689h-37.167c-1.912 0-3.695-1.03-4.65-2.687l-28.4-49.246 20.135-34.914zm54.734 112.82l-45.43 78.78c-1.4 2.426-3.72 2.689-4.653 2.689-.932 0-3.252-.263-4.651-2.69l-20.134-34.913 28.398-49.246c.956-1.657 2.738-2.686 4.65-2.686h37.168c2.8 0 4.185 1.88 4.652 2.687.466.81 1.399 2.952 0 5.378zm11.184 17.8l39.487 68.93c.545.95 1.147 1.848 1.8 2.696-.653.849-1.256 1.747-1.8 2.698L341.47 17.465l-39.486-68.931c-.544-.95-1.148-1.849-1.799-2.697.65-.848 1.256-1.746 1.8-2.696l39.485-68.932zm9.196-23.179c.466-.808 1.852-2.687 4.651-2.687h37.168c1.912 0 3.694 1.029 4.65 2.686l28.399 49.246L405.4-64.81c-1.4 2.427-3.719 2.69-4.652 2.69-.932 0-3.251-.263-4.652-2.69l-45.43-78.78c-1.4-2.426-.467-4.568 0-5.378zm0-28.66l45.43-78.78c1.4-2.428 3.72-2.69 4.652-2.69.933 0 3.252.262 4.652 2.69l20.134 34.913-28.399 49.246c-.956 1.657-2.738 2.687-4.65 2.687h-37.168c-2.799 0-4.185-1.88-4.651-2.689-.467-.808-1.4-2.951 0-5.377zm108.876 13.349c.542.941 1.148 1.832 1.806 2.675-.658.843-1.264 1.734-1.806 2.675l-23.065 40.103-23.065-40.103c-.542-.94-1.148-1.832-1.806-2.675.659-.843 1.264-1.734 1.806-2.675l23.065-40.102 23.065 40.102zm7.016-92.13c1.4-2.427 3.72-2.688 4.652-2.688.933 0 3.253.261 4.653 2.688l45.43 78.78c1.4 2.427.467 4.57 0 5.378-.465.809-1.852 2.689-4.65 2.689h-37.17c-1.91 0-3.693-1.03-4.65-2.687l-28.398-49.246 20.133-34.914zm54.735 112.82l-45.43 78.78c-1.4 2.426-3.72 2.689-4.653 2.689-.932 0-3.252-.263-4.652-2.69l-20.133-34.913 28.398-49.246c.956-1.657 2.738-2.686 4.65-2.686h37.17c2.797 0 4.184 1.88 4.65 2.687.466.81 1.4 2.952 0 5.378zm10.19 17.8l39.487 68.93c.544.95 1.147 1.848 1.799 2.696-.652.849-1.255 1.747-1.8 2.698l-39.486 68.931-39.486-68.931c-.546-.95-1.148-1.849-1.799-2.697.65-.848 1.254-1.746 1.8-2.696l39.485-68.932zm9.196-23.179c.466-.808 1.853-2.687 4.652-2.687h37.167c1.913 0 3.693 1.029 4.65 2.686l28.399 49.246-20.135 34.913c-1.399 2.427-3.718 2.69-4.65 2.69-.934 0-3.253-.263-4.653-2.69l-45.43-78.78c-1.4-2.426-.466-4.568 0-5.378zm0-28.66l45.43-78.78c1.4-2.428 3.72-2.69 4.652-2.69.933 0 3.252.262 4.651 2.69l20.135 34.913-28.4 49.246c-.956 1.657-2.736 2.687-4.65 2.687h-37.166c-2.8 0-4.186-1.88-4.652-2.689-.466-.808-1.4-2.951 0-5.377zm108.877 13.349c.54.941 1.148 1.832 1.805 2.675-.657.843-1.265 1.734-1.806 2.675l-23.065 40.103-23.066-40.103c-.54-.94-1.147-1.832-1.805-2.675.658-.843 1.264-1.734 1.805-2.675l23.066-40.102 23.066 40.102zm7.017-92.13c1.398-2.427 3.719-2.688 4.651-2.688.932 0 3.252.261 4.652 2.688l45.43 78.78c1.4 2.427.467 4.57 0 5.378-.466.809-1.852 2.689-4.651 2.689h-37.168c-1.912 0-3.694-1.03-4.65-2.687l-28.399-49.246 20.135-34.914zm54.733 112.82l-45.43 78.78c-1.4 2.426-3.72 2.689-4.652 2.689-.933 0-3.253-.263-4.651-2.69l-20.135-34.913 28.399-49.246c.956-1.657 2.738-2.686 4.65-2.686h37.167c2.8 0 4.185 1.88 4.652 2.687.466.81 1.4 2.952 0 5.378zm10.19 17.8l39.487 68.93c.545.95 1.147 1.848 1.799 2.696-.652.849-1.254 1.747-1.8 2.698l-39.486 68.931-39.486-68.931c-.544-.95-1.148-1.849-1.8-2.697.652-.848 1.256-1.746 1.8-2.696l39.486-68.932zm9.195-23.179c.466-.808 1.853-2.687 4.652-2.687h37.168c1.912 0 3.694 1.029 4.65 2.686l28.399 49.246-20.134 34.913c-1.4 2.427-3.72 2.69-4.652 2.69-.932 0-3.252-.263-4.652-2.69l-45.43-78.78c-1.4-2.426-.467-4.568 0-5.378zm0-28.66l45.43-78.78c1.4-2.428 3.721-2.69 4.653-2.69.932 0 3.252.262 4.651 2.69l20.135 34.913-28.399 49.246c-.957 1.657-2.738 2.687-4.65 2.687h-37.168c-2.799 0-4.186-1.88-4.652-2.689-.466-.808-1.399-2.951 0-5.377zM839.57-164.28c.541.941 1.147 1.832 1.806 2.675-.659.843-1.265 1.734-1.806 2.675l-23.066 40.103-23.064-40.103c-.542-.94-1.148-1.832-1.806-2.675.658-.843 1.264-1.734 1.806-2.675l23.064-40.102 23.066 40.102zm8.012-92.13c1.4-2.427 3.72-2.688 4.652-2.688.932 0 3.252.261 4.653 2.688l45.43 78.78c1.398 2.427.466 4.57 0 5.378-.466.809-1.853 2.689-4.652 2.689h-37.169c-1.91 0-3.693-1.03-4.649-2.687l-28.399-49.246 20.134-34.914zm54.734 112.82l-45.43 78.78c-1.4 2.426-3.72 2.689-4.652 2.689-.932 0-3.253-.263-4.652-2.69l-20.134-34.913 28.4-49.246c.955-1.657 2.737-2.686 4.648-2.686h37.169c2.799 0 4.185 1.88 4.65 2.687.468.81 1.4 2.952 0 5.378zm9.196 17.8l39.486 68.93c.544.95 1.148 1.848 1.799 2.696-.651.849-1.255 1.747-1.8 2.698L911.51 17.465l-39.486-68.931c-.545-.95-1.148-1.849-1.8-2.697.652-.848 1.255-1.746 1.8-2.696l39.487-68.932zm9.194-23.179c.466-.808 1.853-2.687 4.652-2.687h37.168c1.912 0 3.695 1.029 4.65 2.686l28.399 49.246L975.44-64.81c-1.4 2.427-3.72 2.69-4.653 2.69-.932 0-3.252-.263-4.652-2.69l-45.43-78.78c-1.4-2.426-.467-4.568-.001-5.378zm0-28.66l45.432-78.78c1.399-2.428 3.72-2.69 4.65-2.69.933 0 3.254.262 4.653 2.69l20.134 34.913-28.4 49.246c-.955 1.657-2.737 2.687-4.649 2.687h-37.168c-2.799 0-4.185-1.88-4.652-2.689-.466-.808-1.398-2.951 0-5.377zm108.878 13.349c.541.941 1.147 1.832 1.805 2.675-.658.843-1.265 1.734-1.806 2.675l-23.065 40.103-23.066-40.103c-.541-.94-1.149-1.832-1.805-2.675.656-.843 1.264-1.734 1.805-2.675l23.066-40.102 23.066 40.102zm8.011-92.13c1.4-2.427 3.719-2.688 4.651-2.688.934 0 3.253.261 4.653 2.688l45.43 78.78c1.4 2.427.466 4.57 0 5.378-.466.809-1.852 2.689-4.652 2.689h-37.167c-1.913 0-3.694-1.03-4.65-2.687l-28.399-49.246 20.134-34.914zm54.734 112.82l-45.43 78.78c-1.4 2.426-3.72 2.689-4.653 2.689-.932 0-3.252-.263-4.65-2.69l-20.135-34.913 28.4-49.246c.955-1.657 2.736-2.686 4.649-2.686h37.167c2.8 0 4.185 1.88 4.652 2.687.466.81 1.4 2.952 0 5.378zm9.196 17.8l39.485 68.93c.546.95 1.149 1.848 1.8 2.696-.651.849-1.255 1.747-1.8 2.698l-39.485 68.931-39.487-68.931c-.544-.95-1.148-1.849-1.8-2.697.652-.848 1.256-1.746 1.8-2.696l39.487-68.932zm10.19-23.179c.465-.808 1.852-2.687 4.65-2.687h37.17c1.911 0 3.694 1.029 4.65 2.686l28.397 49.246-20.132 34.913c-1.4 2.427-3.72 2.69-4.652 2.69-.933 0-3.253-.263-4.652-2.69l-45.431-78.78c-1.4-2.426-.467-4.568 0-5.378zm0-28.66l45.43-78.78c1.4-2.428 3.72-2.69 4.653-2.69.932 0 3.251.262 4.651 2.69l20.133 34.913-28.397 49.246c-.957 1.657-2.739 2.687-4.65 2.687h-37.17c-2.798 0-4.185-1.88-4.65-2.689-.467-.808-1.4-2.951 0-5.377zm107.881 13.349c.542.941 1.148 1.832 1.806 2.675-.658.843-1.265 1.734-1.806 2.675l-23.066 40.103-23.065-40.103c-.542-.94-1.148-1.832-1.805-2.675.658-.843 1.263-1.734 1.805-2.675l23.065-40.102 23.066 40.102zm8.012-92.13c1.4-2.427 3.72-2.688 4.652-2.688.932 0 3.252.261 4.652 2.688l45.43 78.78c1.4 2.427.467 4.57 0 5.378-.466.809-1.852 2.689-4.651 2.689h-37.168c-1.912 0-3.694-1.03-4.65-2.687l-28.4-49.246 20.135-34.914zm54.734 112.82l-45.43 78.78c-1.4 2.426-3.72 2.689-4.652 2.689-.934 0-3.253-.263-4.652-2.69l-20.134-34.913 28.399-49.246c.956-1.657 2.737-2.686 4.65-2.686h37.168c2.799 0 4.185 1.88 4.65 2.687.468.81 1.4 2.952 0 5.378zm10.19 17.8l39.487 68.93c.544.95 1.147 1.848 1.799 2.696-.652.849-1.255 1.747-1.8 2.698l-39.486 68.931-39.486-68.931c-.545-.95-1.148-1.849-1.8-2.697.652-.848 1.255-1.746 1.8-2.696l39.486-68.932zm9.195-23.179c.467-.808 1.852-2.687 4.652-2.687h37.167c1.913 0 3.695 1.029 4.65 2.686l28.4 49.246-20.134 34.913c-1.4 2.427-3.72 2.69-4.652 2.69-.933 0-3.253-.263-4.652-2.69l-45.43-78.78c-1.4-2.426-.468-4.568-.001-5.378zm0-28.66l45.431-78.78c1.4-2.428 3.72-2.69 4.652-2.69.933 0 3.252.262 4.652 2.69l20.133 34.913-28.398 49.246c-.956 1.657-2.738 2.687-4.65 2.687h-37.168c-2.8 0-4.185-1.88-4.652-2.689-.467-.808-1.399-2.951 0-5.377zm108.878 13.349c.54.941 1.147 1.832 1.804 2.675-.657.843-1.263 1.734-1.804 2.675l-23.067 40.103-23.066-40.103c-.54-.94-1.148-1.832-1.804-2.675.657-.843 1.263-1.734 1.804-2.675l23.066-40.102 23.067 40.102zm7.015-92.13c1.4-2.427 3.72-2.688 4.651-2.688.933 0 3.253.261 4.652 2.688l45.432 78.78c1.4 2.427.466 4.57 0 5.378-.466.809-1.853 2.689-4.652 2.689h-37.168c-1.911 0-3.694-1.03-4.65-2.687l-28.398-49.246 20.133-34.914zm54.735 112.82l-45.432 78.78c-1.399 2.426-3.719 2.689-4.652 2.689-.931 0-3.251-.263-4.651-2.69l-20.133-34.913 28.398-49.246c.956-1.657 2.738-2.686 4.65-2.686h37.168c2.8 0 4.186 1.88 4.652 2.687.466.81 1.4 2.952 0 5.378zM1364.471 56.95c-.54-.942-1.148-1.833-1.804-2.676.657-.843 1.263-1.734 1.804-2.676l23.066-40.102 23.067 40.102c.54.942 1.147 1.833 1.804 2.676-.657.843-1.263 1.734-1.804 2.676l-23.067 40.102-23.066-40.102zm7.975 107.473c-.551-.954-1.161-1.855-1.82-2.706.659-.852 1.269-1.754 1.82-2.708l15.092-26.143 15.092 26.143c.55.954 1.16 1.856 1.82 2.708-.66.85-1.27 1.752-1.82 2.706l-15.092 26.143-15.092-26.143zm-7.975 107.41c-.54-.94-1.148-1.832-1.804-2.675.657-.843 1.263-1.734 1.804-2.675l23.066-40.103 23.067 40.103c.54.941 1.147 1.832 1.804 2.674-.657.844-1.263 1.735-1.804 2.676l-23.067 40.102-23.066-40.102zm7.975 107.475c-.551-.955-1.161-1.857-1.82-2.707.659-.852 1.269-1.754 1.82-2.708l15.092-26.144 15.092 26.144c.55.954 1.16 1.855 1.82 2.708-.66.85-1.27 1.752-1.82 2.707l-15.092 26.142-15.092-26.142zm-20.637 7.24c.933 0 3.252.262 4.652 2.688l20.133 34.914-28.398 49.245c-.956 1.658-2.738 2.688-4.65 2.688h-37.168c-2.8 0-4.185-1.88-4.652-2.69-.467-.807-1.399-2.95 0-5.377l45.431-78.78c1.4-2.426 3.72-2.688 4.652-2.688zm-50.083-104.754c.467-.808 1.852-2.688 4.652-2.688h37.167c1.913 0 3.695 1.03 4.65 2.687l28.4 49.245-20.134 34.914c-1.4 2.427-3.72 2.689-4.652 2.689-.933 0-3.253-.262-4.652-2.69l-45.43-78.778c-1.4-2.427-.468-4.57-.001-5.379zm74.868-73.523l-28.398 49.246c-.956 1.657-2.738 2.687-4.65 2.687h-37.168c-2.8 0-4.185-1.88-4.652-2.689-.467-.808-1.399-2.95 0-5.377l45.431-78.78c1.4-2.427 3.72-2.689 4.652-2.689.933 0 3.252.262 4.652 2.689l20.133 34.913zm-74.868-142.355c.467-.808 1.852-2.689 4.652-2.689h37.167c1.913 0 3.695 1.03 4.65 2.688l28.4 49.245-20.134 34.913c-1.4 2.427-3.72 2.69-4.652 2.69-.933 0-3.253-.263-4.652-2.69l-45.43-78.779c-1.4-2.427-.468-4.57-.001-5.378zm68.9-120.079c.659-.851 1.269-1.753 1.82-2.707l15.092-26.143 15.092 26.143c.55.954 1.16 1.855 1.82 2.707-.66.852-1.27 1.753-1.82 2.707l-15.092 26.143-15.092-26.143c-.551-.954-1.161-1.855-1.82-2.707zm5.968 47.55l-28.398 49.246c-.956 1.657-2.738 2.687-4.65 2.687h-37.168c-2.8 0-4.185-1.88-4.652-2.689-.467-.808-1.399-2.95 0-5.376l45.431-78.781c1.4-2.427 3.72-2.688 4.652-2.688.933 0 3.252.261 4.652 2.688l20.133 34.913zm-123.55 171.025c-.544-.95-1.147-1.848-1.799-2.695.652-.849 1.255-1.747 1.8-2.698l39.486-68.931 39.487 68.931c.544.95 1.147 1.849 1.799 2.697-.652.847-1.255 1.746-1.8 2.696l-39.486 68.932-39.486-68.932zm-20.785 204.229c-.934 0-3.253-.262-4.652-2.69l-20.134-34.913 28.399-49.245c.956-1.658 2.737-2.687 4.65-2.687h37.168c2.799 0 4.185 1.88 4.65 2.688.468.809 1.4 2.952 0 5.379l-45.43 78.779c-1.4 2.427-3.719 2.689-4.651 2.689zm-4.652 20.595c1.4-2.426 3.72-2.688 4.652-2.688.932 0 3.252.262 4.652 2.688l45.43 78.78c1.4 2.427.467 4.57 0 5.378-.466.808-1.852 2.689-4.651 2.689h-37.168c-1.912 0-3.694-1.03-4.65-2.688l-28.4-49.245 20.135-34.914zm-46.169-9.928c-.552-.955-1.161-1.857-1.82-2.707.659-.852 1.268-1.754 1.82-2.708l15.091-26.144 15.092 26.144c.552.954 1.162 1.855 1.82 2.708-.658.85-1.268 1.752-1.82 2.707l-15.092 26.142-15.09-26.142zm-19.641 7.24c.932 0 3.251.262 4.651 2.688l20.133 34.914-28.397 49.245c-.957 1.658-2.739 2.688-4.65 2.688h-37.17c-2.798 0-4.185-1.88-4.65-2.69-.467-.807-1.4-2.95 0-5.377l45.43-78.78c1.4-2.426 3.72-2.688 4.653-2.688zm-50.083-104.754c.465-.808 1.852-2.688 4.65-2.688h37.17c1.911 0 3.694 1.03 4.65 2.687l28.397 49.245-20.132 34.914c-1.4 2.427-3.72 2.689-4.652 2.689-.933 0-3.253-.262-4.652-2.69l-45.431-78.778c-1.4-2.427-.467-4.57 0-5.379zm0-215.878c.465-.808 1.852-2.689 4.65-2.689h37.17c1.911 0 3.694 1.03 4.65 2.688l28.397 49.245-20.132 34.913c-1.4 2.427-3.72 2.69-4.652 2.69-.933 0-3.253-.263-4.652-2.69l-45.431-78.779c-1.4-2.427-.467-4.57 0-5.378zm74.867-72.53l-28.397 49.247c-.957 1.657-2.739 2.687-4.65 2.687h-37.17c-2.798 0-4.185-1.88-4.65-2.689-.467-.808-1.4-2.95 0-5.376l45.43-78.781c1.4-2.427 3.72-2.688 4.653-2.688.932 0 3.251.261 4.651 2.688l20.133 34.913zm25.04-44.842l-15.092 26.143-15.09-26.143c-.553-.954-1.162-1.855-1.821-2.707.659-.851 1.268-1.753 1.82-2.707l15.091-26.143 15.092 26.143c.552.954 1.162 1.855 1.82 2.707-.658.852-1.268 1.753-1.82 2.707zm70.72 94.087c-.466.809-1.852 2.69-4.651 2.69h-37.168c-1.912 0-3.694-1.03-4.65-2.688l-28.4-49.246 20.135-34.913c1.4-2.427 3.72-2.688 4.652-2.688.932 0 3.252.261 4.652 2.688l45.43 78.78c1.4 2.427.467 4.569 0 5.377zm-50.082 110.131c-.934 0-3.253-.262-4.652-2.689l-20.134-34.913 28.399-49.245c.956-1.658 2.737-2.688 4.65-2.688h37.168c2.799 0 4.185 1.88 4.65 2.689.468.808 1.4 2.951 0 5.378l-45.43 78.78c-1.4 2.426-3.719 2.688-4.651 2.688zm-24.786 55.51l20.134-34.914c1.4-2.427 3.72-2.689 4.652-2.689.932 0 3.252.262 4.652 2.689l45.43 78.78c1.4 2.426.467 4.568 0 5.377-.466.81-1.852 2.69-4.651 2.69h-37.168c-1.912 0-3.694-1.031-4.65-2.688l-28.4-49.246zm-34.009 58.211l23.065-40.103 23.066 40.103c.542.941 1.148 1.832 1.806 2.674-.658.844-1.265 1.735-1.806 2.676l-23.066 40.102-23.065-40.102c-.542-.94-1.148-1.832-1.805-2.675.658-.843 1.263-1.734 1.805-2.675zm13.117-58.212l-28.397 49.246c-.957 1.657-2.739 2.687-4.65 2.687h-37.17c-2.798 0-4.185-1.88-4.65-2.689-.467-.808-1.4-2.95 0-5.377l45.43-78.78c1.4-2.427 3.72-2.689 4.653-2.689.932 0 3.251.262 4.651 2.689l20.133 34.913zM1173.464 56.95c-.542-.942-1.148-1.833-1.805-2.676.658-.843 1.263-1.734 1.805-2.676l23.065-40.102 23.066 40.102c.542.942 1.148 1.833 1.806 2.676-.658.843-1.265 1.734-1.806 2.676l-23.066 40.102-23.065-40.102zm38.157 102.059c.552.954 1.162 1.856 1.82 2.708-.658.85-1.268 1.752-1.82 2.706l-15.092 26.143-15.09-26.143c-.553-.954-1.162-1.855-1.821-2.706.659-.852 1.268-1.754 1.82-2.708l15.091-26.143 15.092 26.143zm-149.584 5.403c-.544-.95-1.148-1.848-1.8-2.695.652-.849 1.256-1.747 1.8-2.698l39.487-68.931 39.485 68.931c.546.95 1.149 1.849 1.8 2.697-.651.847-1.255 1.746-1.8 2.696l-39.485 68.932-39.487-68.932zm-19.792 204.229c-.932 0-3.252-.262-4.65-2.69l-20.135-34.913 28.4-49.245c.955-1.658 2.736-2.687 4.649-2.687h37.167c2.8 0 4.185 1.88 4.652 2.688.466.809 1.4 2.952 0 5.379l-45.43 78.779c-1.4 2.427-3.72 2.689-4.653 2.689zm-4.65 20.595c1.398-2.426 3.718-2.688 4.65-2.688.934 0 3.253.262 4.653 2.688l45.43 78.78c1.4 2.427.466 4.57 0 5.378-.466.808-1.852 2.689-4.652 2.689h-37.167c-1.913 0-3.694-1.03-4.65-2.688l-28.399-49.245 20.134-34.914zm-46.17-9.928c-.55-.955-1.162-1.857-1.82-2.707.658-.852 1.27-1.754 1.82-2.708l15.092-26.144 15.091 26.144c.551.954 1.162 1.855 1.82 2.708-.658.85-1.269 1.752-1.82 2.707l-15.091 26.142-15.093-26.142zm-20.637 7.24c.932 0 3.253.262 4.652 2.688l20.134 34.914-28.4 49.245c-.955 1.658-2.737 2.688-4.649 2.688h-37.168c-2.799 0-4.185-1.88-4.652-2.69-.466-.807-1.398-2.95 0-5.377l45.432-78.78c1.399-2.426 3.72-2.688 4.65-2.688zm-50.083-104.754c.466-.808 1.853-2.688 4.652-2.688h37.168c1.912 0 3.695 1.03 4.65 2.687l28.399 49.245-20.133 34.914c-1.4 2.427-3.72 2.689-4.653 2.689-.932 0-3.252-.262-4.652-2.69l-45.43-78.778c-1.4-2.427-.467-4.57-.001-5.379zm0-215.878c.466-.808 1.853-2.689 4.652-2.689h37.168c1.912 0 3.695 1.03 4.65 2.688l28.399 49.245-20.133 34.913c-1.4 2.427-3.72 2.69-4.653 2.69-.932 0-3.252-.263-4.652-2.69l-45.43-78.779c-1.4-2.427-.467-4.57-.001-5.378zm74.869-72.53l-28.4 49.247c-.955 1.657-2.737 2.687-4.649 2.687h-37.168c-2.799 0-4.185-1.88-4.652-2.689-.466-.808-1.398-2.95 0-5.376l45.432-78.781c1.399-2.427 3.72-2.688 4.65-2.688.933 0 3.254.261 4.653 2.688l20.134 34.913zm26.034-44.842l-15.091 26.143-15.093-26.143c-.55-.954-1.16-1.855-1.82-2.707.66-.851 1.27-1.753 1.821-2.707l15.092-26.143 15.091 26.143c.551.954 1.162 1.855 1.82 2.707-.658.852-1.269 1.753-1.82 2.707zm70.72 94.087c-.466.809-1.852 2.69-4.652 2.69h-37.167c-1.913 0-3.694-1.03-4.65-2.688L1017.46-6.613l20.134-34.913c1.4-2.427 3.719-2.688 4.651-2.688.934 0 3.253.261 4.653 2.688l45.43 78.78c1.4 2.427.466 4.569 0 5.377zm-50.083 110.131c-.932 0-3.252-.262-4.65-2.689l-20.135-34.913 28.4-49.245c.955-1.658 2.736-2.688 4.649-2.688h37.167c2.8 0 4.185 1.88 4.652 2.689.466.808 1.4 2.951 0 5.378l-45.43 78.78c-1.4 2.426-3.72 2.688-4.653 2.688zm-24.785 55.51l20.134-34.914c1.4-2.427 3.719-2.689 4.651-2.689.934 0 3.253.262 4.653 2.689l45.43 78.78c1.4 2.426.466 4.568 0 5.377-.466.81-1.852 2.69-4.652 2.69h-37.167c-1.913 0-3.694-1.031-4.65-2.688l-28.399-49.246zm-34.01 58.211l23.067-40.103 23.066 40.103c.541.941 1.147 1.832 1.805 2.674-.658.844-1.265 1.735-1.806 2.676l-23.065 40.102-23.066-40.102c-.541-.94-1.149-1.832-1.805-2.675.656-.843 1.264-1.734 1.805-2.675zm12.124-58.212l-28.4 49.246c-.955 1.657-2.737 2.687-4.649 2.687h-37.168c-2.799 0-4.185-1.88-4.652-2.689-.466-.808-1.398-2.95 0-5.377l45.432-78.78c1.399-2.427 3.72-2.689 4.65-2.689.933 0 3.254.262 4.653 2.689l20.134 34.913zM983.45 56.95c-.541-.942-1.149-1.833-1.805-2.676.656-.843 1.264-1.734 1.805-2.676l23.066-40.102 23.066 40.102c.541.942 1.147 1.833 1.805 2.676-.658.843-1.265 1.734-1.806 2.676l-23.065 40.102L983.45 56.95zm38.157 102.059c.551.954 1.162 1.856 1.82 2.708-.658.85-1.269 1.752-1.82 2.706l-15.091 26.143-15.093-26.143c-.55-.954-1.16-1.855-1.82-2.706.66-.852 1.27-1.754 1.821-2.708l15.092-26.143 15.091 26.143zm-149.584 5.403c-.545-.95-1.148-1.848-1.8-2.695.652-.849 1.255-1.747 1.8-2.698l39.487-68.931 39.486 68.931c.544.95 1.148 1.849 1.799 2.697-.652.847-1.255 1.746-1.8 2.696l-39.486 68.932-39.486-68.932zm-19.79 204.229c-.933 0-3.254-.262-4.653-2.69l-20.134-34.913 28.4-49.245c.955-1.658 2.737-2.687 4.648-2.687h37.169c2.799 0 4.185 1.88 4.65 2.688.468.809 1.4 2.952 0 5.379l-45.429 78.779c-1.4 2.427-3.72 2.689-4.652 2.689zm-4.653 20.595c1.4-2.426 3.72-2.688 4.652-2.688.932 0 3.252.262 4.653 2.688l45.43 78.78c1.398 2.427.466 4.57 0 5.378-.466.808-1.853 2.689-4.652 2.689h-37.169c-1.91 0-3.693-1.03-4.649-2.688l-28.399-49.245 20.134-34.914zm-46.169-9.928c-.55-.955-1.16-1.857-1.82-2.707.66-.852 1.27-1.754 1.821-2.708l15.09-26.144 15.092 26.144c.552.954 1.162 1.855 1.821 2.708-.659.85-1.269 1.752-1.82 2.707l-15.093 26.142-15.09-26.142zm-20.637 7.24c.932 0 3.252.262 4.651 2.688l20.135 34.914-28.399 49.245c-.957 1.658-2.738 2.688-4.65 2.688h-37.168c-2.799 0-4.186-1.88-4.652-2.69-.466-.807-1.399-2.95 0-5.377l45.43-78.78c1.4-2.426 3.721-2.688 4.653-2.688zm-50.083-104.754c.466-.808 1.853-2.688 4.652-2.688h37.168c1.912 0 3.694 1.03 4.65 2.687l28.399 49.245-20.134 34.914c-1.4 2.427-3.72 2.689-4.652 2.689-.932 0-3.252-.262-4.652-2.69l-45.43-78.778c-1.4-2.427-.467-4.57 0-5.379zm0-215.878c.466-.808 1.853-2.689 4.652-2.689h37.168c1.912 0 3.694 1.03 4.65 2.688l28.399 49.245-20.134 34.913c-1.4 2.427-3.72 2.69-4.652 2.69-.932 0-3.252-.263-4.652-2.69l-45.43-78.779c-1.4-2.427-.467-4.57 0-5.378zm74.869-72.53l-28.399 49.247c-.957 1.657-2.738 2.687-4.65 2.687h-37.168c-2.799 0-4.186-1.88-4.652-2.689-.466-.808-1.399-2.95 0-5.376l45.43-78.781c1.4-2.427 3.721-2.688 4.653-2.688.932 0 3.252.261 4.651 2.688l20.135 34.913zm26.034-44.842l-15.092 26.143-15.09-26.143c-.552-.954-1.162-1.855-1.821-2.707.66-.851 1.27-1.753 1.821-2.707l15.09-26.143 15.092 26.143c.552.954 1.162 1.855 1.821 2.707-.659.852-1.269 1.753-1.82 2.707zm70.72 94.087c-.465.809-1.852 2.69-4.651 2.69h-37.169c-1.91 0-3.693-1.03-4.649-2.688L827.447-6.613l20.134-34.913c1.4-2.427 3.72-2.688 4.652-2.688.932 0 3.252.261 4.653 2.688l45.43 78.78c1.398 2.427.466 4.569 0 5.377zm-50.082 110.131c-.932 0-3.253-.262-4.652-2.689l-20.134-34.913 28.4-49.245c.955-1.658 2.737-2.688 4.648-2.688h37.169c2.799 0 4.185 1.88 4.65 2.689.468.808 1.4 2.951 0 5.378l-45.429 78.78c-1.4 2.426-3.72 2.688-4.652 2.688zm-24.786 55.51l20.134-34.914c1.4-2.427 3.72-2.689 4.652-2.689.932 0 3.252.262 4.653 2.689l45.43 78.78c1.398 2.426.466 4.568 0 5.377-.466.81-1.853 2.69-4.652 2.69h-37.169c-1.91 0-3.693-1.031-4.649-2.688l-28.399-49.246zm-34.008 58.211l23.064-40.103 23.066 40.103c.541.941 1.147 1.832 1.806 2.674-.659.844-1.265 1.735-1.806 2.676l-23.066 40.102-23.064-40.102c-.542-.94-1.148-1.832-1.806-2.675.658-.843 1.264-1.734 1.806-2.675zm12.122-58.212l-28.399 49.246c-.957 1.657-2.738 2.687-4.65 2.687h-37.168c-2.799 0-4.186-1.88-4.652-2.689-.466-.808-1.399-2.95 0-5.377l45.43-78.78c1.4-2.427 3.721-2.689 4.653-2.689.932 0 3.252.262 4.651 2.689l20.135 34.913zM793.439 56.95c-.542-.942-1.148-1.833-1.806-2.676.658-.843 1.264-1.734 1.806-2.676l23.064-40.102 23.066 40.102c.541.942 1.147 1.833 1.806 2.676-.659.843-1.265 1.734-1.806 2.676l-23.066 40.102L793.44 56.95zm38.156 102.059c.552.954 1.162 1.856 1.821 2.708-.659.85-1.269 1.752-1.82 2.706l-15.093 26.143-15.09-26.143c-.552-.954-1.162-1.855-1.821-2.706.66-.852 1.27-1.754 1.821-2.708l15.09-26.143 15.092 26.143zm-149.584 5.403c-.544-.95-1.148-1.848-1.8-2.695.653-.849 1.256-1.747 1.8-2.698l39.486-68.931 39.487 68.931c.545.95 1.147 1.849 1.799 2.697-.652.847-1.254 1.746-1.8 2.696l-39.486 68.932-39.486-68.932zm-20.786 204.229c-.933 0-3.253-.262-4.651-2.69l-20.135-34.913 28.399-49.245c.956-1.658 2.738-2.687 4.65-2.687h37.167c2.8 0 4.185 1.88 4.652 2.688.466.809 1.4 2.952 0 5.379l-45.43 78.779c-1.4 2.427-3.72 2.689-4.652 2.689zm-4.651 20.595c1.398-2.426 3.719-2.688 4.651-2.688.932 0 3.252.262 4.652 2.688l45.43 78.78c1.4 2.427.467 4.57 0 5.378-.466.808-1.852 2.689-4.651 2.689h-37.168c-1.912 0-3.694-1.03-4.65-2.688l-28.399-49.245 20.135-34.914zm-45.175-9.928c-.55-.955-1.162-1.857-1.82-2.707.658-.852 1.27-1.754 1.82-2.708l15.092-26.144 15.092 26.144c.55.954 1.162 1.855 1.82 2.708-.658.85-1.27 1.752-1.82 2.707l-15.092 26.142-15.092-26.142zm-20.637 7.24c.933 0 3.252.262 4.651 2.688l20.135 34.914-28.4 49.245c-.956 1.658-2.736 2.688-4.65 2.688h-37.166c-2.8 0-4.186-1.88-4.652-2.69-.466-.807-1.4-2.95 0-5.377l45.43-78.78c1.4-2.426 3.72-2.688 4.652-2.688zM540.68 281.794c.466-.808 1.853-2.688 4.652-2.688h37.167c1.913 0 3.693 1.03 4.65 2.687l28.399 49.245-20.135 34.914c-1.399 2.427-3.718 2.689-4.65 2.689-.934 0-3.253-.262-4.653-2.69l-45.43-78.778c-1.4-2.427-.466-4.57 0-5.379zm0-215.878c.466-.808 1.853-2.689 4.652-2.689h37.167c1.913 0 3.693 1.03 4.65 2.688l28.399 49.245-20.135 34.913c-1.399 2.427-3.718 2.69-4.65 2.69-.934 0-3.253-.263-4.653-2.69l-45.43-78.779c-1.4-2.427-.466-4.57 0-5.378zm74.868-72.53l-28.4 49.247c-.956 1.657-2.736 2.687-4.65 2.687h-37.166c-2.8 0-4.186-1.88-4.652-2.689-.466-.808-1.4-2.95 0-5.376l45.43-78.781c1.4-2.427 3.72-2.688 4.652-2.688.933 0 3.252.261 4.651 2.688l20.135 34.913zm26.035-44.842l-15.092 26.143L611.4-51.456c-.55-.954-1.162-1.855-1.82-2.707.658-.851 1.27-1.753 1.82-2.707l15.092-26.143 15.092 26.143c.55.954 1.162 1.855 1.82 2.707-.658.852-1.27 1.753-1.82 2.707zm69.725 94.087c-.467.809-1.853 2.69-4.652 2.69h-37.168c-1.912 0-3.694-1.03-4.65-2.688L636.439-6.613l20.135-34.913c1.398-2.427 3.719-2.688 4.651-2.688.932 0 3.252.261 4.652 2.688l45.43 78.78c1.4 2.427.467 4.569 0 5.377zm-50.083 110.131c-.933 0-3.253-.262-4.651-2.689l-20.135-34.913 28.399-49.245c.956-1.658 2.738-2.688 4.65-2.688h37.167c2.8 0 4.185 1.88 4.652 2.689.466.808 1.4 2.951 0 5.378l-45.43 78.78c-1.4 2.426-3.72 2.688-4.652 2.688zm-24.786 55.51l20.135-34.914c1.398-2.427 3.719-2.689 4.651-2.689.932 0 3.252.262 4.652 2.689l45.43 78.78c1.4 2.426.467 4.568 0 5.377-.466.81-1.852 2.69-4.651 2.69h-37.168c-1.912 0-3.694-1.031-4.65-2.688l-28.399-49.246zm-33.014 58.211l23.066-40.103 23.066 40.103c.54.941 1.148 1.832 1.805 2.674-.657.844-1.265 1.735-1.806 2.676l-23.065 40.102-23.066-40.102c-.54-.94-1.147-1.832-1.805-2.675.658-.843 1.264-1.734 1.805-2.675zm12.123-58.212l-28.4 49.246c-.956 1.657-2.736 2.687-4.65 2.687h-37.166c-2.8 0-4.186-1.88-4.652-2.689-.466-.808-1.4-2.95 0-5.377l45.43-78.78c1.4-2.427 3.72-2.689 4.652-2.689.933 0 3.252.262 4.651 2.689l20.135 34.913zM603.425 56.95c-.54-.942-1.147-1.833-1.805-2.676.658-.843 1.264-1.734 1.805-2.676l23.066-40.102 23.066 40.102c.54.942 1.148 1.833 1.805 2.676-.657.843-1.265 1.734-1.806 2.676l-23.065 40.102-23.066-40.102zm38.158 102.059c.55.954 1.162 1.856 1.82 2.708-.658.85-1.27 1.752-1.82 2.706l-15.092 26.143-15.093-26.143c-.55-.954-1.161-1.855-1.82-2.706.66-.852 1.27-1.754 1.82-2.708l15.093-26.143 15.092 26.143zm-149.585 5.403c-.546-.95-1.148-1.848-1.799-2.695.65-.849 1.254-1.747 1.8-2.698l39.485-68.931 39.487 68.931c.544.95 1.147 1.849 1.799 2.697-.652.847-1.255 1.746-1.8 2.696l-39.486 68.932-39.486-68.932zM471.21 368.641c-.932 0-3.252-.262-4.652-2.69l-20.133-34.913 28.398-49.245c.956-1.658 2.738-2.687 4.65-2.687h37.17c2.797 0 4.184 1.88 4.65 2.688.466.809 1.4 2.952 0 5.379l-45.43 78.779c-1.4 2.427-3.72 2.689-4.653 2.689zm-4.652 20.595c1.4-2.426 3.72-2.688 4.652-2.688.933 0 3.253.262 4.653 2.688l45.43 78.78c1.4 2.427.467 4.57 0 5.378-.465.808-1.852 2.689-4.65 2.689h-37.17c-1.91 0-3.693-1.03-4.65-2.688l-28.398-49.245 20.133-34.914zm-45.172-9.928c-.552-.955-1.162-1.857-1.821-2.707.66-.852 1.27-1.754 1.82-2.708l15.092-26.144 15.092 26.144c.551.954 1.162 1.855 1.82 2.708-.658.85-1.269 1.752-1.82 2.707l-15.092 26.142-15.091-26.142zm-20.638 7.24c.933 0 3.252.262 4.652 2.688l20.134 34.914-28.399 49.245c-.956 1.658-2.738 2.688-4.65 2.688h-37.168c-2.799 0-4.185-1.88-4.651-2.69-.467-.807-1.4-2.95 0-5.377l45.43-78.78c1.4-2.426 3.72-2.688 4.652-2.688zm-50.082-104.754c.466-.808 1.852-2.688 4.651-2.688h37.168c1.912 0 3.694 1.03 4.65 2.687l28.399 49.245-20.134 34.914c-1.4 2.427-3.719 2.689-4.652 2.689-.932 0-3.251-.262-4.652-2.69l-45.43-78.778c-1.4-2.427-.467-4.57 0-5.379zm0-215.878c.466-.808 1.852-2.689 4.651-2.689h37.168c1.912 0 3.694 1.03 4.65 2.688l28.399 49.245-20.134 34.913c-1.4 2.427-3.719 2.69-4.652 2.69-.932 0-3.251-.263-4.652-2.69l-45.43-78.779c-1.4-2.427-.467-4.57 0-5.378zm74.868-72.53l-28.399 49.247c-.956 1.657-2.738 2.687-4.65 2.687h-37.168c-2.799 0-4.185-1.88-4.651-2.689-.467-.808-1.4-2.95 0-5.376l45.43-78.781c1.4-2.427 3.72-2.688 4.652-2.688.933 0 3.252.261 4.652 2.688l20.134 34.913zm26.035-44.842l-15.092 26.143-15.091-26.143c-.552-.954-1.162-1.855-1.821-2.707.66-.851 1.27-1.753 1.82-2.707l15.092-26.143L451.57-56.87c.551.954 1.162 1.855 1.82 2.707-.658.852-1.269 1.753-1.82 2.707zm69.725 94.087c-.466.809-1.853 2.69-4.652 2.69h-37.169c-1.91 0-3.693-1.03-4.65-2.688L446.426-6.613l20.133-34.913c1.4-2.427 3.72-2.688 4.652-2.688.933 0 3.253.261 4.653 2.688l45.43 78.78c1.4 2.427.467 4.569 0 5.377zM471.21 152.762c-.932 0-3.252-.262-4.652-2.689l-20.133-34.913 28.398-49.245c.956-1.658 2.738-2.688 4.65-2.688h37.17c2.797 0 4.184 1.88 4.65 2.689.466.808 1.4 2.951 0 5.378l-45.43 78.78c-1.4 2.426-3.72 2.688-4.653 2.688zm-24.785 55.51l20.133-34.914c1.4-2.427 3.72-2.689 4.652-2.689.933 0 3.253.262 4.653 2.689l45.43 78.78c1.4 2.426.467 4.568 0 5.377-.465.81-1.852 2.69-4.65 2.69h-37.17c-1.91 0-3.693-1.031-4.65-2.688l-28.398-49.246zm-33.013 58.211l23.065-40.103 23.065 40.103c.542.941 1.148 1.832 1.806 2.674-.658.844-1.264 1.735-1.806 2.676l-23.065 40.102-23.065-40.102c-.542-.94-1.148-1.832-1.806-2.675.659-.843 1.264-1.734 1.806-2.675zm12.122-58.212l-28.399 49.246c-.956 1.657-2.738 2.687-4.65 2.687h-37.168c-2.799 0-4.185-1.88-4.651-2.689-.467-.808-1.4-2.95 0-5.377l45.43-78.78c1.4-2.427 3.72-2.689 4.652-2.689.933 0 3.252.262 4.652 2.689l20.134 34.913zM413.413 56.95c-.542-.942-1.148-1.833-1.806-2.676.659-.843 1.264-1.734 1.806-2.676l23.065-40.102 23.065 40.102c.542.942 1.148 1.833 1.806 2.676-.658.843-1.264 1.734-1.806 2.676l-23.065 40.102-23.065-40.102zm38.157 102.059c.551.954 1.162 1.856 1.82 2.708-.658.85-1.269 1.752-1.82 2.706l-15.092 26.143-15.091-26.143c-.552-.954-1.162-1.855-1.821-2.706.66-.852 1.27-1.754 1.82-2.708l15.092-26.143 15.092 26.143zm-149.586 5.403c-.544-.95-1.148-1.848-1.798-2.695.65-.849 1.255-1.747 1.799-2.698l39.486-68.931 39.487 68.931c.545.95 1.147 1.849 1.8 2.697-.653.847-1.256 1.746-1.8 2.696l-39.487 68.932-39.487-68.932zm-21.78 204.229c-.932 0-3.252-.262-4.651-2.69l-20.134-34.913 28.398-49.245c.956-1.658 2.738-2.687 4.65-2.687h37.168c2.8 0 4.185 1.88 4.652 2.688.466.809 1.399 2.952 0 5.379l-45.43 78.779c-1.4 2.427-3.72 2.689-4.653 2.689zm-4.651 20.595c1.399-2.426 3.719-2.688 4.651-2.688.933 0 3.252.262 4.652 2.688l45.43 78.78c1.4 2.427.467 4.57 0 5.378-.466.808-1.852 2.689-4.651 2.689h-37.167c-1.912 0-3.695-1.03-4.65-2.688l-28.4-49.245 20.135-34.914zm-44.18-9.928c-.551-.955-1.16-1.857-1.82-2.707.66-.852 1.269-1.754 1.82-2.708l15.092-26.144 15.092 26.144c.55.954 1.16 1.855 1.82 2.708-.66.85-1.27 1.752-1.82 2.707l-15.092 26.142-15.092-26.142zm-20.636 7.24c.932 0 3.251.262 4.651 2.688l20.134 34.914-28.399 49.245c-.956 1.658-2.738 2.688-4.65 2.688h-37.168c-2.798 0-4.185-1.88-4.652-2.69-.465-.807-1.399-2.95 0-5.377l45.432-78.78c1.399-2.426 3.719-2.688 4.652-2.688zm-50.084-104.754c.467-.808 1.853-2.688 4.652-2.688h37.168c1.912 0 3.694 1.03 4.65 2.687l28.399 49.245-20.134 34.914c-1.4 2.427-3.719 2.689-4.651 2.689-.933 0-3.253-.262-4.652-2.69l-45.43-78.778c-1.4-2.427-.468-4.57-.002-5.379zm0-215.878c.467-.808 1.853-2.689 4.652-2.689h37.168c1.912 0 3.694 1.03 4.65 2.688l28.399 49.245-20.134 34.913c-1.4 2.427-3.719 2.69-4.651 2.69-.933 0-3.253-.263-4.652-2.69l-45.43-78.779c-1.4-2.427-.468-4.57-.002-5.378zm74.869-72.53l-28.399 49.247c-.956 1.657-2.738 2.687-4.65 2.687h-37.168c-2.798 0-4.185-1.88-4.652-2.689-.465-.808-1.399-2.95 0-5.376l45.432-78.781c1.399-2.427 3.719-2.688 4.652-2.688.932 0 3.251.261 4.651 2.688l20.134 34.913zm26.035-44.842l-15.092 26.143-15.092-26.143c-.551-.954-1.16-1.855-1.82-2.707.66-.851 1.269-1.753 1.82-2.707l15.092-26.143 15.092 26.143c.55.954 1.16 1.855 1.82 2.707-.66.852-1.27 1.753-1.82 2.707zm68.73 94.087c-.467.809-1.853 2.69-4.652 2.69h-37.167c-1.912 0-3.695-1.03-4.65-2.688l-28.4-49.246 20.135-34.913c1.399-2.427 3.719-2.688 4.651-2.688.933 0 3.252.261 4.652 2.688l45.43 78.78c1.4 2.427.467 4.569 0 5.377zm-50.083 110.131c-.932 0-3.252-.262-4.651-2.689l-20.134-34.913 28.398-49.245c.956-1.658 2.738-2.688 4.65-2.688h37.168c2.8 0 4.185 1.88 4.652 2.689.466.808 1.399 2.951 0 5.378l-45.43 78.78c-1.4 2.426-3.72 2.688-4.653 2.688zm-24.785 55.51l20.134-34.914c1.399-2.427 3.719-2.689 4.651-2.689.933 0 3.252.262 4.652 2.689l45.43 78.78c1.4 2.426.467 4.568 0 5.377-.466.81-1.852 2.69-4.651 2.69h-37.167c-1.912 0-3.695-1.031-4.65-2.688l-28.4-49.246zm-32.02 58.211l23.066-40.103 23.066 40.103c.541.941 1.149 1.832 1.805 2.674-.656.844-1.264 1.735-1.805 2.676l-23.066 40.102-23.066-40.102c-.541-.94-1.147-1.832-1.805-2.675.658-.843 1.264-1.734 1.805-2.675zm12.123-58.212l-28.399 49.246c-.956 1.657-2.738 2.687-4.65 2.687h-37.168c-2.798 0-4.185-1.88-4.652-2.689-.465-.808-1.399-2.95 0-5.377l45.432-78.78c1.399-2.427 3.719-2.689 4.652-2.689.932 0 3.251.262 4.651 2.689l20.134 34.913zM223.399 56.95c-.541-.942-1.147-1.833-1.805-2.676.658-.843 1.264-1.734 1.805-2.676l23.066-40.102 23.066 40.102c.541.942 1.149 1.833 1.805 2.676-.656.843-1.264 1.734-1.805 2.676l-23.066 40.102L223.4 56.95zm38.158 102.059c.55.954 1.16 1.856 1.82 2.708-.66.85-1.27 1.752-1.82 2.706l-15.092 26.143-15.092-26.143c-.551-.954-1.16-1.855-1.82-2.706.66-.852 1.269-1.754 1.82-2.708l15.092-26.143 15.092 26.143zm-150.58 5.403c-.544-.95-1.147-1.848-1.799-2.695.652-.849 1.255-1.747 1.8-2.698l39.486-68.931 39.487 68.931c.544.95 1.147 1.849 1.798 2.697-.651.847-1.254 1.746-1.8 2.696l-39.485 68.932-39.486-68.932zM90.192 368.641c-.933 0-3.252-.262-4.652-2.69l-20.133-34.913 28.399-49.245c.955-1.658 2.737-2.687 4.648-2.687h37.17c2.798 0 4.185 1.88 4.65 2.688.467.809 1.4 2.952 0 5.379l-45.43 78.779c-1.4 2.427-3.719 2.689-4.652 2.689zm-4.652 20.595c1.4-2.426 3.72-2.688 4.652-2.688.933 0 3.253.262 4.652 2.688l45.43 78.78c1.4 2.427.467 4.57 0 5.378-.465.808-1.852 2.689-4.65 2.689h-37.17c-1.91 0-3.693-1.03-4.648-2.688l-28.4-49.245 20.134-34.914zm-14.99-15.343c.552.954 1.161 1.855 1.82 2.708-.659.85-1.268 1.752-1.82 2.707L55.458 405.45l-15.092-26.142c-.551-.955-1.161-1.857-1.82-2.707.659-.852 1.269-1.754 1.82-2.708l15.092-26.144 15.09 26.144zm7.975-107.41c.54.941 1.146 1.832 1.804 2.674-.658.844-1.263 1.735-1.804 2.676l-23.066 40.102-23.066-40.102c-.542-.94-1.148-1.832-1.805-2.675.657-.843 1.263-1.734 1.805-2.675l23.066-40.103 23.066 40.103zM70.549 159.01c.552.954 1.161 1.856 1.82 2.708-.659.85-1.268 1.752-1.82 2.706l-15.091 26.143-15.092-26.143c-.551-.954-1.161-1.855-1.82-2.706.659-.852 1.269-1.754 1.82-2.708l15.092-26.143 15.09 26.143zm7.975-107.41c.54.94 1.146 1.832 1.804 2.675-.658.843-1.263 1.734-1.804 2.676L55.458 97.052 32.392 56.95c-.542-.942-1.148-1.833-1.805-2.676.657-.843 1.263-1.734 1.805-2.676l23.066-40.102 23.066 40.102zM70.549-51.457L55.458-25.313 40.366-51.456c-.551-.954-1.161-1.855-1.82-2.707.659-.851 1.269-1.753 1.82-2.707l15.092-26.143 15.09 26.143c.553.954 1.162 1.855 1.822 2.707-.66.852-1.27 1.753-1.821 2.707zm69.724 94.087c-.465.809-1.852 2.69-4.65 2.69h-37.17c-1.91 0-3.693-1.03-4.648-2.688l-28.4-49.246L85.54-41.526c1.4-2.427 3.72-2.688 4.652-2.688.933 0 3.253.261 4.652 2.688l45.43 78.78c1.4 2.427.467 4.569 0 5.377zm0 209.507c1.4 2.426.467 4.568 0 5.377-.465.81-1.852 2.69-4.65 2.69h-37.17c-1.91 0-3.693-1.031-4.648-2.688l-28.4-49.246 20.134-34.913c1.4-2.427 3.72-2.689 4.652-2.689.933 0 3.253.262 4.652 2.689l45.43 78.78zm-50.082-99.376c-.933 0-3.252-.262-4.652-2.689L65.406 115.16l28.399-49.245c.955-1.658 2.737-2.688 4.648-2.688h37.17c2.798 0 4.185 1.88 4.65 2.689.467.808 1.4 2.951 0 5.378l-45.43 78.78c-1.4 2.426-3.719 2.688-4.652 2.688zM1472.354 37.255c1.4 2.426.466 4.568 0 5.376-.466.809-1.853 2.69-4.652 2.69h-37.168c-1.911 0-3.694-1.03-4.65-2.688l-28.398-49.246 20.133-34.913c1.4-2.427 3.72-2.688 4.651-2.688.933 0 3.253.261 4.652 2.688l45.432 78.78zm15.485 42.401c4.215-7.298 4.215-16.012 0-23.31-.549-.949-1.155-1.846-1.81-2.691.655-.847 1.261-1.743 1.81-2.692 4.215-7.298 4.214-16.012 0-23.31l-45.548-78.87c-.548-.95-1.155-1.846-1.81-2.692.655-.847 1.263-1.743 1.81-2.692l45.548-78.87c4.215-7.299 4.215-16.013 0-23.31-.549-.95-1.155-1.847-1.81-2.692.655-.847 1.261-1.743 1.81-2.692 4.215-7.298 4.214-16.012 0-23.31l-45.548-78.87c-4.214-7.299-11.764-11.655-20.193-11.655-8.428 0-15.976 4.356-20.191 11.655l-15.01 25.99-15.01-25.99c-4.214-7.299-11.762-11.655-20.192-11.655-8.428 0-15.978 4.356-20.192 11.655l-39.734 68.804-39.734-68.804c-4.215-7.299-11.763-11.655-20.193-11.655-8.429 0-15.976 4.356-20.192 11.655l-15.01 25.99-15.008-25.99c-4.216-7.299-11.763-11.655-20.192-11.655-8.43 0-15.979 4.356-20.194 11.655l-39.733 68.804-39.735-68.804c-4.214-7.299-11.763-11.655-20.192-11.655s-15.977 4.356-20.192 11.655l-15.01 25.99-15.01-25.99C987.16-273.644 979.613-278 971.183-278c-8.428 0-15.977 4.356-20.192 11.655l-39.734 68.804-39.734-68.804C867.307-273.644 859.76-278 851.33-278c-8.43 0-15.977 4.356-20.193 11.655l-15.01 25.99-15.008-25.99C796.904-273.644 789.356-278 780.926-278c-8.43 0-15.977 4.356-20.193 11.655L721-197.541l-39.734-68.804C677.05-273.644 669.502-278 661.074-278c-8.43 0-15.979 4.356-20.193 11.655l-15.01 25.99-15.01-25.99C606.649-273.644 599.099-278 590.67-278c-8.43 0-15.977 4.356-20.192 11.655l-39.735 68.804-39.734-68.804C486.794-273.644 479.246-278 470.816-278c-8.43 0-15.976 4.356-20.192 11.655l-15.009 25.99-15.01-25.99C416.392-273.644 408.844-278 400.414-278c-8.429 0-15.977 4.356-20.192 11.655l-39.734 68.804-39.735-68.804C296.539-273.644 288.989-278 280.56-278s-15.977 4.356-20.192 11.655l-15.01 25.99-15.009-25.99C226.135-273.644 218.586-278 210.158-278c-8.43 0-15.98 4.356-20.194 11.655l-39.733 68.804-39.735-68.804C106.281-273.644 98.733-278 90.304-278c-8.43 0-15.977 4.356-20.192 11.655l-15.01 25.99-15.009-25.99C35.878-273.644 28.33-278 19.901-278c-8.43 0-15.978 4.356-20.192 11.655l-45.548 78.87c-4.215 7.298-4.215 16.012 0 23.31.548.949 1.155 1.845 1.81 2.691-.655.846-1.262 1.743-1.81 2.692-4.215 7.299-4.215 16.012 0 23.31L-.291-56.6c.548.948 1.154 1.844 1.81 2.691-.656.847-1.263 1.743-1.81 2.692l-45.548 78.87c-4.215 7.299-4.215 16.013 0 23.311.548.949 1.155 1.845 1.81 2.692-.655.845-1.262 1.741-1.81 2.691-4.215 7.298-4.215 16.012 0 23.31l45.548 78.87c.548.949 1.154 1.846 1.81 2.692-.656.846-1.263 1.743-1.81 2.692l-45.548 78.87c-4.215 7.298-4.215 16.012 0 23.31.548.95 1.155 1.846 1.81 2.691-.655.847-1.262 1.744-1.81 2.693-4.215 7.298-4.215 16.011 0 23.31l45.548 78.87c.548.948 1.154 1.845 1.81 2.692-.656.846-1.263 1.743-1.81 2.692l-45.548 78.87c-4.215 7.299-4.215 16.012 0 23.31.548.948 1.155 1.845 1.81 2.692-.655.845-1.262 1.742-1.81 2.692-4.215 7.297-4.215 16.012 0 23.31l45.548 78.87c4.214 7.298 11.762 11.655 20.192 11.655s15.977-4.357 20.192-11.655l15.01-25.99 15.009 25.99c4.215 7.298 11.763 11.655 20.192 11.655 8.43 0 15.977-4.357 20.193-11.655l39.734-68.803 39.734 68.803c4.214 7.298 11.763 11.655 20.193 11.655 8.428 0 15.977-4.357 20.191-11.655l15.01-25.99 15.01 25.99c4.214 7.298 11.762 11.655 20.191 11.655 8.429 0 15.979-4.357 20.193-11.655l39.734-68.803 39.734 68.803c4.215 7.298 11.763 11.655 20.192 11.655 8.43 0 15.978-4.357 20.193-11.655l15.01-25.99 15.008 25.99c4.216 7.298 11.763 11.655 20.192 11.655 8.43 0 15.978-4.357 20.194-11.655l39.734-68.803 39.734 68.803c4.215 7.298 11.763 11.655 20.192 11.655 8.428 0 15.978-4.357 20.192-11.655l15.01-25.99 15.01 25.99c4.213 7.298 11.762 11.655 20.192 11.655 8.428 0 15.977-4.357 20.192-11.655L721 519.978l39.733 68.804c4.216 7.298 11.763 11.655 20.193 11.655 8.43 0 15.978-4.357 20.194-11.655l15.007-25.99 15.01 25.99c4.215 7.298 11.764 11.655 20.193 11.655 8.43 0 15.977-4.357 20.192-11.655l39.735-68.803 39.734 68.803c4.214 7.298 11.763 11.655 20.191 11.655 8.43 0 15.978-4.357 20.193-11.655l15.01-25.99 15.01 25.99c4.213 7.298 11.762 11.655 20.19 11.655 8.43 0 15.979-4.357 20.193-11.655l39.735-68.803 39.733 68.803c4.215 7.298 11.764 11.655 20.194 11.655 8.429 0 15.976-4.357 20.192-11.655l15.009-25.99 15.009 25.99c4.215 7.298 11.763 11.655 20.192 11.655 8.43 0 15.978-4.357 20.194-11.655l39.733-68.803 39.735 68.803c4.213 7.298 11.763 11.655 20.191 11.655 8.43 0 15.978-4.357 20.193-11.655l15.01-25.99 15.009 25.99c4.215 7.298 11.763 11.655 20.191 11.655 8.43 0 15.979-4.357 20.193-11.655l45.548-78.87c4.215-7.298 4.215-16.013 0-23.31-.549-.949-1.155-1.847-1.81-2.692.655-.847 1.261-1.744 1.81-2.692 4.215-7.298 4.214-16.011 0-23.31l-45.548-78.87c-.548-.95-1.155-1.846-1.81-2.691.655-.847 1.263-1.744 1.81-2.693l45.548-78.87c4.215-7.299 4.215-16.013 0-23.31-.549-.948-1.155-1.846-1.81-2.692.655-.846 1.261-1.743 1.81-2.691 4.215-7.299 4.214-16.013 0-23.311l-45.548-78.87c-.548-.949-1.155-1.845-1.81-2.69.655-.847 1.263-1.744 1.81-2.693l45.548-78.87z" mask="url(#prefix__b)" opacity=".05"/>
    </g>
</svg>
