<?xml version="1.0" encoding="utf-8"?><svg xmlns="http://www.w3.org/2000/svg" xmlns:xlink="http://www.w3.org/1999/xlink"><symbol viewBox="0 0 30 30" id="fb" xmlns="http://www.w3.org/2000/svg"><g fill-rule="evenodd"><path d="M0 0h30v30H0z"/><path fill-rule="nonzero" d="M24 5H6c-.54.03-.97.46-1 1v18c.03.54.46.97 1 1h10v-8h-3v-3h3v-2c-.32-2.57 1.26-4 4-4 .665.06 1.335.06 2 0v3h-2c-1-.16-1.2.44-1 1v2h3l-1 3h-2v8h5c.54-.03.97-.46 1-1V6a1.06 1.06 0 0 0-1-1"/></g></symbol><symbol viewBox="0 0 30 30" id="inst" xmlns="http://www.w3.org/2000/svg"><g fill-rule="evenodd"><path d="M0 0h30v30H0z"/><path fill-rule="nonzero" d="M25 15c0 1.74-.07 3.49-.13 5.24a5.414 5.414 0 0 1-.52 2.23 3.999 3.999 0 0 1-2.94 2.25c-.76.163-1.533.257-2.31.28-2.51 0-5 .05-7.54 0a14.305 14.305 0 0 1-3-.23 4.12 4.12 0 0 1-3.35-3.52A17.03 17.03 0 0 1 5 18.77v-7.15c-.03-1.005.047-2.011.23-3A4.131 4.131 0 0 1 9 5.19 29.005 29.005 0 0 1 12.09 5h6.34c.972-.029 1.945.048 2.9.23A4.141 4.141 0 0 1 24.78 9c.12 1 .14 2 .17 3s0 2 0 3m-3.76 0A6.26 6.26 0 1 0 15 21.28 6.261 6.261 0 0 0 21.24 15m.26-8a1.472 1.472 0 0 0-1.44 1.477A1.472 1.472 0 0 0 23 8.51 1.45 1.45 0 0 0 21.5 7M15 10.94A4.069 4.069 0 1 0 19 15a4.06 4.06 0 0 0-4-4.08"/></g></symbol><symbol viewBox="0 0 30 30" id="link" xmlns="http://www.w3.org/2000/svg"><g fill-rule="evenodd"><path d="M0 0h30v30H0z"/><path fill-rule="nonzero" d="M5.5 24.5h4.22V11.83H5.5V24.5zm2.12-19A1.999 1.999 0 0 0 5.5 7.61a1.998 1.998 0 0 0 2.07 2.11 1.999 1.999 0 0 0 2.12-2.11A1.998 1.998 0 0 0 7.62 5.5zM24.5 17.4v7.1h-4.15v-6.62c0-1.66-.6-2.8-2.1-2.8a2.27 2.27 0 0 0-2.13 1.51c-.108.322-.155.66-.14 1v6.91h-4.15s.06-11.21 0-12.38H16v1.76a4.15 4.15 0 0 1 3.74-2.05c2.71 0 4.76 1.77 4.76 5.57z"/></g></symbol><symbol viewBox="0 0 67 40" id="logo" xmlns="http://www.w3.org/2000/svg"><path fill-rule="evenodd" d="M60.177 8.288l-14.225 25.14a1.645 1.645 0 0 1-1.457.858 1.644 1.644 0 0 1-1.456-.858l-6.304-11.141 8.892-15.715c.299-.53.857-.858 1.456-.858H58.72c.877 0 1.31.6 1.457.859.146.257.438.941 0 1.715zm-37.093 25.14a1.646 1.646 0 0 1-1.457.858 1.646 1.646 0 0 1-1.457-.858L5.946 8.288a1.713 1.713 0 0 1 0-1.715c.146-.259.58-.859 1.456-.859H19.04a1.68 1.68 0 0 1 1.456.858l8.892 15.715-6.304 11.14zM65.119 3.715C63.779 1.389 61.383 0 58.706 0H46.872a7.42 7.42 0 0 0-6.413 3.715l-7.398 12.857-7.398-12.857A7.42 7.42 0 0 0 19.251 0H7.417C4.74 0 2.342 1.389 1.004 3.715a7.374 7.374 0 0 0 0 7.43l14.465 25.14C16.807 38.611 19.205 40 21.882 40s5.074-1.39 6.412-3.715l4.767-8.284 4.767 8.284C39.166 38.611 41.564 40 44.241 40s5.074-1.39 6.413-3.715l14.465-25.14a7.378 7.378 0 0 0 0-7.43z"/></symbol><symbol viewBox="0 0 30 30" id="tw" xmlns="http://www.w3.org/2000/svg"><g fill-rule="evenodd"><path d="M0 0h30v30H0z"/><path fill-rule="nonzero" d="M23.75 10.58v.58A12.65 12.65 0 0 1 10.92 23.8a12.846 12.846 0 0 1-6.92-2c.359.04.72.06 1.08.06a9.079 9.079 0 0 0 5.6-1.9 4.5 4.5 0 0 1-4.21-3.08 4.524 4.524 0 0 0 2.03-.08 4.459 4.459 0 0 1-3.62-4.35v-.06c.632.34 1.333.532 2.05.56a4.44 4.44 0 0 1-2-3.7c-.007-.79.2-1.568.6-2.25a12.879 12.879 0 0 0 9.31 4.64 4.21 4.21 0 0 1-.12-1 4.48 4.48 0 0 1 4.51-4.44 4.568 4.568 0 0 1 3.3 1.4 9.146 9.146 0 0 0 2.86-1.08 4.485 4.485 0 0 1-2 2.46 9.034 9.034 0 0 0 2.59-.7 8.946 8.946 0 0 1-2.25 2.3"/></g></symbol></svg>