<svg xmlns="http://www.w3.org/2000/svg" width="30" height="30" viewBox="0 0 30 30">
    <g fill="none" fill-rule="evenodd">
        <path d="M0 0H30V30H0z"/>
        <path fill="#FFF" fill-rule="nonzero" d="M25 15c0 1.74-.07 3.49-.13 5.24-.012.772-.19 1.532-.52 2.23-.553 1.186-1.651 2.026-2.94 2.25-.76.163-1.533.257-2.31.28-2.51 0-5 .05-7.54 0-1.005.029-2.01-.048-3-.23-1.763-.32-3.118-1.743-3.35-3.52-.13-.82-.201-1.65-.21-2.48v-7.15c-.03-1.005.047-2.011.23-3C5.547 6.745 7.104 5.33 9 5.19c1.026-.118 2.057-.182 3.09-.19h6.34c.972-.029 1.945.048 2.9.23 1.88.312 3.305 1.869 3.45 3.77.12 1 .14 2 .17 3s0 2 0 3m-3.76 0c-.008-2.536-1.546-4.817-3.895-5.776-2.348-.958-5.043-.404-6.823 1.402-1.78 1.806-2.295 4.509-1.303 6.843.992 2.334 3.295 3.84 5.831 3.811 1.66-.005 3.25-.67 4.42-1.848 1.17-1.177 1.825-2.772 1.82-4.432m.26-8c-.802.017-1.443.674-1.44 1.477.004.802.651 1.453 1.454 1.463.802.009 1.464-.628 1.486-1.43.017-.404-.135-.796-.42-1.083-.285-.286-.676-.441-1.08-.427M15 10.94c-1.653-.028-3.16.946-3.81 2.466-.652 1.52-.32 3.282.84 4.46 1.161 1.178 2.919 1.536 4.448.908 1.529-.63 2.526-2.12 2.522-3.774.011-2.227-1.773-4.047-4-4.08"/>
    </g>
</svg>
