<svg xmlns="http://www.w3.org/2000/svg" width="1440" height="524" viewBox="0 0 1440 524">
    <path fill-rule="evenodd" d="M1425.886 251.073c-1.4 2.425-3.723 2.687-4.657 2.687-.933 0-3.255-.262-4.657-2.687l-20.156-34.882 28.43-49.201c.958-1.657 2.742-2.685 4.656-2.685h37.21c2.802 0 4.19 1.878 4.657 2.686.467.808 1.401 2.948 0 5.373l-45.483 78.709zm45.483 101.974c1.401 2.424.467 4.564 0 5.372-.467.808-1.855 2.686-4.657 2.686h-37.21c-1.914 0-3.698-1.029-4.655-2.685l-28.43-49.2 20.155-34.883c1.402-2.424 3.724-2.686 4.657-2.686.934 0 3.257.262 4.657 2.686l45.483 78.71zm0 34.009l-45.483 78.709c-1.4 2.424-3.723 2.686-4.657 2.686-.933 0-3.255-.262-4.657-2.686l-20.156-34.883 28.43-49.2c.958-1.657 2.742-2.686 4.656-2.686h37.21c2.802 0 4.19 1.88 4.657 2.686.467.808 1.401 2.95 0 5.374zm0 181.37c1.401 2.425.467 4.565 0 5.373-.467.808-1.855 2.686-4.657 2.686h-37.21c-1.914 0-3.698-1.029-4.655-2.685l-28.43-49.201 20.155-34.883c1.402-2.424 3.724-2.686 4.657-2.686.934 0 3.257.262 4.657 2.686l45.483 78.71zm0 34.01l-45.483 78.71c-1.4 2.423-3.723 2.685-4.657 2.685-.933 0-3.255-.262-4.657-2.686l-20.156-34.882 28.43-49.202c.958-1.656 2.742-2.685 4.656-2.685h37.21c2.802 0 4.19 1.879 4.657 2.686.467.808 1.401 2.949 0 5.374zm-108.224-14.66c-.546-.946-1.16-1.842-1.822-2.69.663-.847 1.276-1.743 1.822-2.69l23.294-40.316 23.294 40.316c.546.947 1.158 1.843 1.822 2.69-.664.848-1.276 1.744-1.822 2.69l-23.294 40.318-23.294-40.318zm-7.528 93.37c-1.402 2.423-3.723 2.685-4.658 2.685-.933 0-3.256-.262-4.656-2.686l-45.482-78.71c-1.402-2.424-.468-4.565 0-5.373.466-.807 1.854-2.686 4.656-2.686h37.21c1.914 0 3.698 1.029 4.655 2.685l28.431 49.202-20.156 34.882zm-64.826-131.497l-39.817-68.87c-.55-.95-1.157-1.847-1.814-2.693.657-.848 1.265-1.745 1.815-2.695l39.816-68.87 39.817 68.87c.548.949 1.157 1.847 1.814 2.694-.657.846-1.266 1.744-1.815 2.695l-39.816 68.869zm-9.342 52.787l-45.481 78.71c-1.402 2.423-3.724 2.685-4.657 2.685-.935 0-3.256-.262-4.658-2.686l-20.156-34.882 28.43-49.202c.958-1.656 2.741-2.685 4.656-2.685h37.21c2.802 0 4.19 1.879 4.656 2.686.468.808 1.401 2.949 0 5.374zm-108.91-14.66c-.548-.946-1.16-1.842-1.824-2.69.664-.847 1.276-1.743 1.823-2.69l23.293-40.316 23.293 40.316c.547.947 1.159 1.843 1.823 2.69-.664.848-1.276 1.744-1.823 2.69l-23.293 40.318-23.293-40.318zm-7.529 93.37c-1.402 2.423-3.724 2.685-4.657 2.685-.934 0-3.257-.262-4.658-2.686l-45.482-78.71c-1.402-2.424-.467-4.565 0-5.373.466-.807 1.854-2.686 4.656-2.686h37.211c1.914 0 3.699 1.029 4.656 2.685l28.43 49.202-20.156 34.882zm-64.138-131.497l-39.817-68.87c-.55-.95-1.158-1.847-1.815-2.693.657-.848 1.267-1.745 1.815-2.695l39.817-68.87 39.816 68.87c.55.949 1.158 1.847 1.814 2.694-.656.846-1.265 1.744-1.814 2.695l-39.816 68.869zm-10.03 52.787l-45.482 78.71c-1.401 2.423-3.723 2.685-4.657 2.685-.934 0-3.256-.262-4.657-2.686l-20.157-34.882 28.432-49.202c.957-1.656 2.74-2.685 4.654-2.685h37.21c2.802 0 4.19 1.879 4.657 2.686.467.808 1.401 2.949 0 5.374zm-108.224-14.66c-.547-.946-1.16-1.842-1.823-2.69.663-.847 1.276-1.743 1.823-2.69l23.294-40.316 23.293 40.316c.547.947 1.158 1.843 1.823 2.69-.665.848-1.277 1.744-1.823 2.69l-23.293 40.318-23.294-40.318zm-7.528 93.37c-1.401 2.423-3.725 2.685-4.658 2.685-.933 0-3.256-.262-4.657-2.686l-45.482-78.71c-1.4-2.424-.467-4.565 0-5.373.466-.807 1.855-2.686 4.657-2.686h37.21c1.914 0 3.699 1.029 4.656 2.685l28.43 49.202-20.156 34.882zm-64.826-131.497l-39.817-68.87c-.55-.95-1.157-1.847-1.814-2.693.657-.848 1.264-1.745 1.814-2.695l39.817-68.87 39.817 68.87c.548.949 1.157 1.847 1.814 2.694-.657.846-1.266 1.744-1.815 2.695l-39.816 68.869zm-9.342 52.787l-45.48 78.71c-1.403 2.423-3.725 2.685-4.658 2.685-.934 0-3.257-.262-4.657-2.686l-20.157-34.882 28.43-49.202c.958-1.656 2.742-2.685 4.655-2.685h37.21c2.803 0 4.19 1.879 4.657 2.686.467.808 1.401 2.949 0 5.374zm-108.91-14.66c-.548-.946-1.16-1.842-1.824-2.69.664-.847 1.276-1.743 1.824-2.69l23.291-40.316 23.293 40.316c.547.947 1.159 1.843 1.824 2.69-.665.848-1.277 1.744-1.824 2.69l-23.293 40.318-23.291-40.318zm-7.53 93.37c-1.402 2.423-3.725 2.685-4.658 2.685-.933 0-3.255-.262-4.657-2.686l-45.482-78.71c-1.4-2.424-.467-4.565 0-5.373.467-.807 1.855-2.686 4.657-2.686h37.21c1.914 0 3.698 1.029 4.655 2.685l28.431 49.202-20.156 34.882zm-64.138-131.497l-39.816-68.87c-.55-.95-1.159-1.847-1.815-2.693.656-.848 1.265-1.745 1.815-2.695l39.816-68.87 39.816 68.87c.55.949 1.158 1.847 1.815 2.694-.657.846-1.265 1.744-1.815 2.695l-39.816 68.869zm-10.03 52.787l-45.481 78.71c-1.402 2.423-3.724 2.685-4.657 2.685-.934 0-3.257-.262-4.657-2.686l-20.157-34.882 28.43-49.202c.958-1.656 2.741-2.685 4.655-2.685h37.21c2.802 0 4.19 1.879 4.658 2.686.466.808 1.401 2.949 0 5.374zm-108.223-14.66c-.546-.946-1.159-1.842-1.823-2.69.664-.847 1.277-1.743 1.823-2.69l23.294-40.316 23.293 40.316c.546.947 1.159 1.843 1.822 2.69-.663.848-1.276 1.744-1.823 2.69l-23.292 40.318-23.294-40.318zm-7.53 93.37c-1.4 2.423-3.723 2.685-4.656 2.685-.934 0-3.256-.262-4.657-2.686l-45.482-78.71c-1.402-2.424-.466-4.565 0-5.373.466-.807 1.855-2.686 4.657-2.686h37.21c1.914 0 3.697 1.029 4.655 2.685l28.43 49.202-20.157 34.882zm-64.825-131.497l-39.817-68.87c-.55-.95-1.157-1.847-1.814-2.693.657-.848 1.265-1.745 1.815-2.695l39.816-68.87 39.817 68.87c.549.949 1.157 1.847 1.814 2.694-.657.846-1.265 1.744-1.814 2.695l-39.817 68.869zm-9.341 52.787l-45.482 78.71c-1.402 2.423-3.724 2.685-4.658 2.685-.933 0-3.255-.262-4.657-2.686l-20.156-34.882 28.43-49.202c.958-1.656 2.741-2.685 4.655-2.685h37.211c2.802 0 4.19 1.879 4.657 2.686.466.808 1.401 2.949 0 5.374zm-108.91-14.66c-.548-.946-1.16-1.842-1.825-2.69.666-.847 1.277-1.743 1.824-2.69l23.293-40.316 23.292 40.316c.547.947 1.16 1.843 1.824 2.69-.665.848-1.277 1.744-1.824 2.69l-23.292 40.318-23.293-40.318zm-7.53 93.37c-1.402 2.423-3.724 2.685-4.658 2.685-.933 0-3.255-.262-4.657-2.686l-45.481-78.71c-1.402-2.424-.468-4.565 0-5.373.466-.807 1.853-2.686 4.656-2.686h37.21c1.914 0 3.698 1.029 4.655 2.685l28.43 49.202-20.156 34.882zm-64.139-131.497L300 480.779c-.549-.95-1.158-1.847-1.814-2.693.656-.848 1.266-1.745 1.814-2.695l39.816-68.87 39.817 68.87c.55.949 1.158 1.847 1.815 2.694-.657.846-1.266 1.744-1.815 2.695l-39.817 68.869zm-10.029 52.787l-45.481 78.71c-1.402 2.423-3.724 2.685-4.658 2.685-.933 0-3.256-.262-4.656-2.686l-20.157-34.882 28.43-49.202c.957-1.656 2.741-2.685 4.656-2.685h37.21c2.802 0 4.19 1.879 4.656 2.686.468.808 1.401 2.949 0 5.374zm-108.224-14.66c-.546-.946-1.158-1.842-1.822-2.69.664-.847 1.276-1.743 1.822-2.69l23.294-40.316 23.294 40.316c.546.947 1.16 1.843 1.822 2.69-.663.848-1.276 1.744-1.822 2.69l-23.294 40.318-23.294-40.318zm-7.528 93.37c-1.402 2.423-3.723 2.685-4.657 2.685-.934 0-3.256-.262-4.657-2.686l-45.482-78.71c-1.402-2.424-.467-4.565 0-5.373.466-.807 1.854-2.686 4.656-2.686h37.21c1.915 0 3.698 1.029 4.655 2.685l28.431 49.202-20.156 34.882zM149.21 549.648l-39.817-68.87c-.55-.95-1.158-1.847-1.815-2.693.657-.848 1.266-1.745 1.815-2.695l39.817-68.87 39.816 68.87c.549.949 1.158 1.847 1.814 2.694-.656.846-1.265 1.744-1.814 2.695l-39.816 68.869zm-9.343 52.787l-45.481 78.71c-1.401 2.423-3.724 2.685-4.658 2.685-.933 0-3.255-.262-4.657-2.686l-20.156-34.882 28.431-49.202c.956-1.656 2.74-2.685 4.654-2.685h37.211c2.802 0 4.19 1.879 4.656 2.686.468.808 1.402 2.949 0 5.374zm-108.91-14.66c-.548-.946-1.16-1.842-1.824-2.69.664-.847 1.276-1.743 1.823-2.69L54.25 542.08l23.293 40.316c.547.947 1.158 1.843 1.823 2.69-.665.848-1.276 1.744-1.823 2.69L54.25 628.094l-23.294-40.318zm-6.841 93.37c-1.402 2.423-3.724 2.685-4.657 2.685-.934 0-3.256-.262-4.657-2.686l-45.482-78.71c-1.402-2.424-.468-4.565-.001-5.373.467-.807 1.854-2.686 4.656-2.686h37.21c1.916 0 3.7 1.029 4.656 2.685l28.43 49.202-20.155 34.882zm-54.797-112.72l45.482-78.71c1.402-2.424 3.724-2.686 4.658-2.686.933 0 3.255.262 4.656 2.686L44.272 524.6 15.842 573.8c-.958 1.656-2.741 2.685-4.656 2.685h-37.21c-2.803 0-4.19-1.878-4.657-2.686-.467-.808-1.4-2.948 0-5.373zm0-181.37c-1.4-2.425-.467-4.566 0-5.374.467-.807 1.854-2.686 4.656-2.686h37.21c1.916 0 3.7 1.029 4.656 2.686l28.43 49.2-20.155 34.883c-1.402 2.424-3.724 2.686-4.657 2.686-.934 0-3.256-.262-4.657-2.686l-45.482-78.71zm0-34.01l45.482-78.71c1.402-2.423 3.724-2.685 4.658-2.685.933 0 3.255.262 4.656 2.686l20.157 34.882-28.43 49.201c-.958 1.656-2.741 2.685-4.656 2.685h-37.21c-2.803 0-4.19-1.878-4.657-2.686-.467-.807-1.4-2.948 0-5.372zm0-180.682c-1.4-2.425-.467-4.565 0-5.373.467-.808 1.854-2.686 4.656-2.686h37.21c1.916 0 3.7 1.028 4.656 2.685l28.43 49.201-20.155 34.882c-1.402 2.425-3.724 2.687-4.657 2.687-.934 0-3.256-.262-4.657-2.687l-45.482-78.709zm0-34.697L14.8 58.957c1.402-2.425 3.724-2.686 4.658-2.686.933 0 3.255.261 4.656 2.686l20.157 34.882-28.43 49.201c-.958 1.656-2.741 2.686-4.656 2.686h-37.21c-2.803 0-4.19-1.88-4.657-2.687-.467-.807-1.4-2.948 0-5.372zm0-180.683c-1.4-2.424-.467-4.565 0-5.374.467-.807 1.854-2.685 4.656-2.685h37.21c1.916 0 3.7 1.028 4.656 2.684L44.271.811 24.117 35.693c-1.402 2.425-3.724 2.687-4.657 2.687-.934 0-3.256-.262-4.657-2.687l-45.482-78.71zm0-34.009l45.482-78.71c1.402-2.425 3.724-2.686 4.658-2.686.933 0 3.255.261 4.656 2.686l20.157 34.882-28.43 49.203c-.958 1.655-2.741 2.684-4.656 2.684h-37.21c-2.803 0-4.19-1.878-4.657-2.686-.467-.808-1.4-2.949 0-5.373zm108.224 13.97c.547.947 1.158 1.843 1.823 2.69-.665.847-1.276 1.744-1.823 2.69L54.25-17.357 30.956-57.675c-.547-.946-1.16-1.843-1.823-2.69.664-.847 1.276-1.743 1.823-2.69l23.294-40.317 23.293 40.317zm7.528-92.68c1.402-2.425 3.724-2.686 4.657-2.686.934 0 3.257.261 4.658 2.686l45.48 78.71c1.403 2.424.469 4.565 0 5.373-.465.808-1.853 2.686-4.655 2.686h-37.21c-1.914 0-3.699-1.03-4.655-2.684l-28.43-49.203 20.155-34.882zm54.796 112.719l-45.481 78.71c-1.401 2.424-3.724 2.686-4.658 2.686-.933 0-3.255-.262-4.657-2.687L64.915.811 93.346-48.39c.956-1.656 2.74-2.684 4.654-2.684h37.211c2.802 0 4.19 1.878 4.656 2.685.468.809 1.402 2.95 0 5.374zm9.343 18.777l39.816 68.87c.549.95 1.158 1.846 1.814 2.694-.656.847-1.265 1.745-1.814 2.694l-39.816 68.87-39.817-68.87c-.55-.95-1.158-1.846-1.815-2.694.657-.847 1.266-1.744 1.815-2.694l39.817-68.87zm10.028-24.15c.467-.808 1.855-2.686 4.657-2.686h37.21c1.915 0 3.698 1.028 4.655 2.684L234.191.811l-20.156 34.882c-1.402 2.425-3.723 2.687-4.657 2.687-.934 0-3.256-.262-4.657-2.687l-45.482-78.71c-1.402-2.423-.467-4.564 0-5.373zm0-28.636l45.483-78.71c1.4-2.425 3.723-2.686 4.657-2.686.934 0 3.255.261 4.657 2.686l20.156 34.882-28.43 49.203c-.958 1.655-2.741 2.684-4.656 2.684h-37.21c-2.8 0-4.19-1.878-4.657-2.686-.466-.808-1.4-2.949 0-5.373zm108.913 13.97c.546.947 1.16 1.843 1.822 2.69-.663.847-1.276 1.744-1.822 2.69l-23.294 40.318-23.294-40.318c-.546-.946-1.158-1.843-1.822-2.69.664-.847 1.276-1.743 1.822-2.69l23.294-40.317 23.294 40.317zm6.84-92.68c1.401-2.425 3.724-2.686 4.657-2.686.934 0 3.256.261 4.658 2.686l45.481 78.71c1.401 2.424.468 4.565 0 5.373-.467.808-1.854 2.686-4.657 2.686h-37.209c-1.914 0-3.699-1.03-4.656-2.684l-28.43-49.203 20.157-34.882zm54.796 112.719l-45.481 78.71c-1.402 2.424-3.724 2.686-4.658 2.686-.933 0-3.256-.262-4.656-2.687L254.835.811l28.43-49.202c.957-1.656 2.741-2.684 4.656-2.684h37.21c2.802 0 4.19 1.878 4.656 2.685.468.809 1.401 2.95 0 5.374zm10.03 18.777l39.816 68.87c.55.95 1.158 1.846 1.815 2.694-.657.847-1.266 1.745-1.815 2.694l-39.817 68.87L300 50.02c-.549-.95-1.158-1.846-1.814-2.694.656-.847 1.266-1.744 1.814-2.694l39.816-68.87zm9.342-24.15c.466-.808 1.853-2.686 4.656-2.686h37.21c1.914 0 3.698 1.028 4.655 2.684L424.11.811l-20.156 34.882c-1.401 2.425-3.723 2.687-4.657 2.687-.933 0-3.255-.262-4.657-2.687l-45.481-78.71c-1.402-2.423-.468-4.564 0-5.373zm0-28.636l45.48-78.71c1.403-2.425 3.725-2.686 4.658-2.686.934 0 3.256.261 4.657 2.686l20.157 34.882L395.68-71.65c-.957 1.655-2.74 2.684-4.655 2.684h-37.21c-2.802 0-4.19-1.878-4.657-2.686-.467-.808-1.401-2.949 0-5.373zm108.91 13.97c.547.947 1.16 1.843 1.824 2.69-.665.847-1.277 1.744-1.824 2.69l-23.292 40.318-23.293-40.318c-.547-.946-1.16-1.843-1.824-2.69.666-.847 1.277-1.743 1.824-2.69l23.293-40.317 23.292 40.317zm7.53-92.68c1.4-2.425 3.724-2.686 4.656-2.686.934 0 3.256.261 4.658 2.686l45.482 78.71c1.401 2.424.467 4.565 0 5.373-.466.808-1.855 2.686-4.656 2.686h-37.211c-1.914 0-3.698-1.03-4.656-2.684l-28.43-49.203 20.156-34.882zm54.796 112.719l-45.482 78.71c-1.402 2.424-3.724 2.686-4.658 2.686-.933 0-3.255-.262-4.657-2.687L445.442.811l28.43-49.202c.958-1.656 2.741-2.684 4.655-2.684h37.211c2.802 0 4.19 1.878 4.657 2.685.466.809 1.401 2.95 0 5.374zm9.341 18.777l39.817 68.87c.549.95 1.157 1.846 1.814 2.694-.657.847-1.265 1.745-1.814 2.694l-39.817 68.87-39.817-68.87c-.55-.95-1.157-1.846-1.814-2.694.657-.847 1.265-1.744 1.815-2.694l39.816-68.87zm10.03-24.15c.466-.808 1.855-2.686 4.657-2.686h37.21c1.914 0 3.697 1.028 4.655 2.684L614.718.811l-20.157 34.882c-1.4 2.425-3.723 2.687-4.656 2.687-.934 0-3.256-.262-4.657-2.687l-45.482-78.71c-1.402-2.423-.466-4.564 0-5.373zm0-28.636l45.482-78.71c1.401-2.425 3.723-2.686 4.657-2.686.933 0 3.256.261 4.656 2.686l20.157 34.882-28.43 49.203c-.958 1.655-2.74 2.684-4.656 2.684h-37.209c-2.802 0-4.19-1.878-4.657-2.686-.466-.808-1.402-2.949 0-5.373zm108.912 13.97c.546.947 1.159 1.843 1.822 2.69-.663.847-1.276 1.744-1.823 2.69l-23.292 40.318-23.294-40.318c-.546-.946-1.159-1.843-1.823-2.69.664-.847 1.277-1.743 1.823-2.69l23.294-40.317 23.293 40.317zm6.841-92.68c1.4-2.425 3.723-2.686 4.657-2.686.933 0 3.256.261 4.657 2.686l45.482 78.71c1.4 2.424.466 4.565 0 5.373-.467.808-1.855 2.686-4.657 2.686h-37.21c-1.914 0-3.698-1.03-4.655-2.684l-28.431-49.203 20.157-34.882zm54.796 112.719l-45.482 78.71c-1.402 2.424-3.724 2.686-4.657 2.686-.934 0-3.257-.262-4.657-2.687L635.362.811l28.43-49.202c.958-1.656 2.741-2.684 4.655-2.684h37.21c2.802 0 4.19 1.878 4.658 2.685.466.809 1.401 2.95 0 5.374zm10.03 18.777l39.815 68.87c.55.95 1.158 1.846 1.815 2.694-.657.847-1.265 1.745-1.815 2.694l-39.816 68.87-39.816-68.87c-.55-.95-1.159-1.846-1.815-2.694.656-.847 1.265-1.744 1.815-2.694l39.816-68.87zm9.34-24.15c.467-.808 1.855-2.686 4.657-2.686h37.21c1.914 0 3.698 1.028 4.655 2.684L804.638.811l-20.156 34.882c-1.402 2.425-3.725 2.687-4.658 2.687-.933 0-3.255-.262-4.657-2.687l-45.482-78.71c-1.4-2.423-.467-4.564 0-5.373zm0-28.636l45.481-78.71c1.402-2.425 3.726-2.686 4.658-2.686.933 0 3.256.261 4.657 2.686l20.157 34.882-28.43 49.203c-.959 1.655-2.742 2.684-4.656 2.684h-37.21c-2.802 0-4.19-1.878-4.657-2.686-.466-.808-1.4-2.949 0-5.373zm108.911 13.97c.547.947 1.159 1.843 1.824 2.69-.665.847-1.277 1.744-1.824 2.69l-23.293 40.318-23.291-40.318c-.548-.946-1.16-1.843-1.824-2.69.664-.847 1.276-1.743 1.824-2.69l23.291-40.317 23.293 40.317zm7.53-92.68c1.401-2.425 3.725-2.686 4.658-2.686.933 0 3.255.261 4.657 2.686l45.481 78.71c1.401 2.424.468 4.565 0 5.373-.465.808-1.854 2.686-4.656 2.686h-37.21c-1.914 0-3.698-1.03-4.655-2.684l-28.431-49.203 20.157-34.882zm54.796 112.719l-45.48 78.71c-1.403 2.424-3.725 2.686-4.658 2.686-.934 0-3.257-.262-4.657-2.687L825.97.811 854.4-48.39c.958-1.656 2.742-2.684 4.655-2.684h37.21c2.803 0 4.19 1.878 4.657 2.685.467.809 1.401 2.95 0 5.374zm9.342 18.777l39.817 68.87c.548.95 1.157 1.846 1.814 2.694-.657.847-1.266 1.745-1.815 2.694l-39.816 68.87-39.817-68.87c-.55-.95-1.157-1.846-1.814-2.694.657-.847 1.264-1.744 1.814-2.694l39.817-68.87zm10.028-24.15c.467-.808 1.856-2.686 4.658-2.686h37.21c1.914 0 3.699 1.028 4.656 2.684L995.246.811 975.09 35.693c-1.401 2.425-3.725 2.687-4.658 2.687-.933 0-3.256-.262-4.657-2.687l-45.482-78.71c-1.4-2.423-.467-4.564 0-5.373zm0-28.636l45.483-78.71c1.401-2.425 3.724-2.686 4.657-2.686.933 0 3.257.261 4.657 2.686l20.157 34.882-28.431 49.203c-.957 1.655-2.741 2.684-4.655 2.684h-37.21c-2.802 0-4.19-1.878-4.658-2.686-.466-.808-1.4-2.949 0-5.373zm108.913 13.97c.547.947 1.158 1.843 1.823 2.69-.665.847-1.277 1.744-1.823 2.69l-23.293 40.318-23.294-40.318c-.547-.946-1.16-1.843-1.823-2.69.663-.847 1.276-1.743 1.823-2.69l23.294-40.317 23.293 40.317zm6.841-92.68c1.4-2.425 3.723-2.686 4.657-2.686.934 0 3.256.261 4.657 2.686l45.482 78.71c1.401 2.424.467 4.565 0 5.373-.467.808-1.855 2.686-4.658 2.686h-37.209c-1.914 0-3.697-1.03-4.654-2.684l-28.432-49.203 20.157-34.882zm54.796 112.719l-45.482 78.71c-1.401 2.424-3.723 2.686-4.657 2.686-.934 0-3.256-.262-4.657-2.687L1015.89.811l28.432-49.202c.957-1.656 2.74-2.684 4.654-2.684h37.21c2.802 0 4.19 1.878 4.657 2.685.467.809 1.401 2.95 0 5.374zm10.03 18.777l39.816 68.87c.55.95 1.158 1.846 1.814 2.694-.656.847-1.265 1.745-1.814 2.694l-39.816 68.87-39.817-68.87c-.55-.95-1.158-1.846-1.815-2.694.657-.847 1.267-1.744 1.815-2.694l39.817-68.87zm9.34-24.15c.467-.808 1.855-2.686 4.657-2.686h37.211c1.914 0 3.699 1.028 4.656 2.684l28.43 49.202-20.156 34.882c-1.402 2.425-3.724 2.687-4.657 2.687-.934 0-3.257-.262-4.658-2.687l-45.482-78.71c-1.402-2.423-.467-4.564 0-5.373zm0-28.636l45.483-78.71c1.401-2.425 3.724-2.686 4.658-2.686.933 0 3.255.261 4.656 2.686l20.156 34.882-28.43 49.203c-.957 1.655-2.74 2.684-4.655 2.684h-37.211c-2.802 0-4.19-1.878-4.656-2.686-.467-.808-1.402-2.949 0-5.373zm108.912 13.97c.547.947 1.159 1.843 1.823 2.69-.664.847-1.276 1.744-1.823 2.69l-23.293 40.318-23.293-40.318c-.547-.946-1.16-1.843-1.823-2.69.664-.847 1.276-1.743 1.823-2.69l23.293-40.317 23.293 40.317zm7.53-92.68c1.4-2.425 3.723-2.686 4.657-2.686.933 0 3.255.261 4.657 2.686l45.481 78.71c1.401 2.424.468 4.565 0 5.373-.466.808-1.854 2.686-4.656 2.686h-37.21c-1.914 0-3.698-1.03-4.655-2.684l-28.431-49.203 20.156-34.882zm54.795 112.719l-45.481 78.71c-1.402 2.424-3.724 2.686-4.657 2.686-.935 0-3.256-.262-4.658-2.687L1206.497.811l28.43-49.202c.958-1.656 2.741-2.684 4.656-2.684h37.21c2.802 0 4.19 1.878 4.656 2.685.468.809 1.401 2.95 0 5.374zm9.342 18.777l39.817 68.87c.548.95 1.157 1.846 1.814 2.694-.657.847-1.266 1.745-1.815 2.694l-39.816 68.87-39.817-68.87c-.55-.95-1.157-1.846-1.814-2.694.657-.847 1.265-1.744 1.815-2.694l39.816-68.87zm10.03-24.15c.466-.808 1.854-2.686 4.656-2.686h37.21c1.914 0 3.698 1.028 4.655 2.684L1375.773.811l-20.156 34.882c-1.402 2.425-3.723 2.687-4.658 2.687-.933 0-3.256-.262-4.656-2.687l-45.482-78.71c-1.402-2.423-.468-4.564 0-5.373zm0-28.636l45.482-78.71c1.4-2.425 3.723-2.686 4.656-2.686.935 0 3.256.261 4.658 2.686l20.156 34.882-28.43 49.203c-.958 1.655-2.741 2.684-4.656 2.684h-37.21c-2.802 0-4.19-1.878-4.657-2.686-.467-.808-1.4-2.949 0-5.373zm108.912 13.97c.546.947 1.158 1.843 1.822 2.69-.664.847-1.276 1.744-1.822 2.69l-23.294 40.318-23.294-40.318c-.546-.946-1.16-1.843-1.822-2.69.663-.847 1.276-1.743 1.822-2.69l23.294-40.317 23.294 40.317zm6.84-92.68c1.4-2.425 3.723-2.686 4.656-2.686.934 0 3.257.261 4.657 2.686l45.483 78.71c1.401 2.424.467 4.565 0 5.373-.467.808-1.855 2.686-4.657 2.686h-37.21c-1.914 0-3.698-1.03-4.655-2.684l-28.43-49.203 20.155-34.882zm54.796 112.719l-45.483 78.71c-1.4 2.424-3.723 2.686-4.657 2.686-.933 0-3.255-.262-4.657-2.687L1396.416.811l28.43-49.202c.958-1.656 2.742-2.684 4.656-2.684h37.21c2.802 0 4.19 1.878 4.657 2.685.467.809 1.401 2.95 0 5.374zm-108.224 200.721c-.546-.946-1.16-1.842-1.822-2.69.663-.848 1.276-1.743 1.822-2.69l23.294-40.317 23.294 40.317c.546.947 1.158 1.842 1.822 2.69-.664.848-1.276 1.744-1.822 2.69l-23.294 40.317-23.294-40.317zm8.25 107.336c-.55-.945-1.158-1.837-1.815-2.679.657-.843 1.266-1.736 1.815-2.68l15.044-25.878 15.044 25.878c.55.944 1.157 1.837 1.815 2.68-.658.842-1.265 1.734-1.815 2.68l-15.044 25.876-15.044-25.877zm-8.25 108.044c-.546-.946-1.16-1.842-1.822-2.69.663-.847 1.276-1.743 1.822-2.689l23.294-40.318 23.294 40.318c.546.946 1.158 1.842 1.822 2.689-.664.848-1.276 1.744-1.822 2.69l-23.294 40.317-23.294-40.317zm8.25 107.337c-.55-.946-1.158-1.838-1.815-2.68.657-.843 1.266-1.736 1.815-2.68l15.044-25.878 15.044 25.878c.55.944 1.157 1.836 1.815 2.68-.658.842-1.265 1.734-1.815 2.68l-15.044 25.876-15.044-25.876zm-20.436 6.608c.935 0 3.256.262 4.658 2.686l20.156 34.883-28.43 49.201c-.958 1.656-2.741 2.685-4.656 2.685h-37.21c-2.802 0-4.19-1.878-4.657-2.686-.467-.808-1.4-2.948 0-5.373l45.483-78.71c1.4-2.424 3.723-2.686 4.656-2.686zm-50.139-105.348c.467-.807 1.855-2.686 4.657-2.686h37.21c1.914 0 3.698 1.029 4.655 2.686l28.431 49.2-20.156 34.883c-1.402 2.424-3.723 2.686-4.658 2.686-.933 0-3.256-.262-4.656-2.686l-45.482-78.71c-1.402-2.424-.468-4.565 0-5.373zm74.953-72.463l-28.43 49.201c-.958 1.656-2.741 2.685-4.656 2.685h-37.21c-2.802 0-4.19-1.878-4.657-2.686-.467-.807-1.4-2.948 0-5.372l45.483-78.71c1.4-2.424 3.723-2.686 4.656-2.686.935 0 3.256.262 4.658 2.686l20.156 34.882zm-74.953-142.228c.467-.808 1.855-2.686 4.657-2.686h37.21c1.914 0 3.698 1.028 4.655 2.685l28.431 49.201-20.156 34.882c-1.402 2.425-3.723 2.687-4.658 2.687-.933 0-3.256-.262-4.656-2.687l-45.482-78.709c-1.402-2.425-.468-4.565 0-5.373zm68.76-119.322c.657-.843 1.266-1.735 1.815-2.68l15.044-25.876 15.044 25.877c.55.944 1.157 1.836 1.815 2.68-.658.842-1.265 1.734-1.815 2.679l-15.044 25.877-15.044-25.877c-.55-.945-1.158-1.837-1.815-2.68zm6.193 46.17l-28.43 49.201c-.958 1.656-2.741 2.686-4.656 2.686h-37.21c-2.802 0-4.19-1.88-4.657-2.687-.467-.807-1.4-2.948 0-5.372l45.483-78.71c1.4-2.425 3.723-2.686 4.656-2.686.935 0 3.256.261 4.658 2.686l20.156 34.882zm-124.799 171.56c-.55-.95-1.157-1.847-1.814-2.693.657-.848 1.265-1.745 1.815-2.695l39.816-68.87 39.817 68.87c.548.949 1.157 1.847 1.814 2.694-.657.847-1.266 1.744-1.815 2.694l-39.816 68.87-39.817-68.87zm-19.663 203.052c-.935 0-3.256-.262-4.658-2.686l-20.156-34.883 28.43-49.2c.958-1.657 2.741-2.686 4.656-2.686h37.21c2.802 0 4.19 1.88 4.656 2.686.468.808 1.401 2.95 0 5.374l-45.481 78.709c-1.402 2.424-3.724 2.686-4.657 2.686zm-4.658 21.265c1.402-2.424 3.724-2.686 4.658-2.686.933 0 3.255.262 4.657 2.686l45.481 78.71c1.401 2.425.468 4.565 0 5.373-.466.808-1.854 2.686-4.656 2.686h-37.21c-1.914 0-3.698-1.029-4.655-2.685l-28.431-49.201 20.156-34.883zm-45.866-9.294c-.55-.946-1.157-1.838-1.815-2.68.658-.843 1.265-1.736 1.815-2.68l15.044-25.878 15.044 25.878c.55.944 1.158 1.836 1.815 2.68-.657.842-1.265 1.734-1.815 2.68l-15.044 25.876-15.044-25.876zm-20.434 6.608c.933 0 3.255.262 4.656 2.686l20.156 34.883-28.43 49.201c-.957 1.656-2.74 2.685-4.655 2.685h-37.211c-2.802 0-4.19-1.878-4.656-2.686-.467-.808-1.402-2.948 0-5.373l45.482-78.71c1.401-2.424 3.724-2.686 4.658-2.686zm-50.14-105.348c.466-.807 1.854-2.686 4.656-2.686h37.211c1.914 0 3.699 1.029 4.656 2.686l28.43 49.2-20.156 34.883c-1.402 2.424-3.724 2.686-4.657 2.686-.934 0-3.257-.262-4.658-2.686l-45.482-78.71c-1.402-2.424-.467-4.565 0-5.373zm0-214.691c.466-.808 1.854-2.686 4.656-2.686h37.211c1.914 0 3.699 1.028 4.656 2.685l28.43 49.201-20.156 34.882c-1.402 2.425-3.724 2.687-4.657 2.687-.934 0-3.257-.262-4.658-2.687l-45.482-78.709c-1.402-2.425-.467-4.565 0-5.373zm74.952-73.152l-28.43 49.201c-.957 1.656-2.74 2.686-4.655 2.686h-37.211c-2.802 0-4.19-1.88-4.656-2.687-.467-.807-1.402-2.948 0-5.372l45.482-78.71c1.401-2.425 3.724-2.686 4.658-2.686.933 0 3.255.261 4.656 2.686l20.156 34.882zm25.71-43.49l-15.044 25.877-15.044-25.877c-.55-.945-1.157-1.837-1.815-2.68.658-.843 1.265-1.735 1.815-2.68l15.044-25.876 15.044 25.877c.55.944 1.158 1.836 1.815 2.68-.657.842-1.265 1.734-1.815 2.679zm70.574 92.69c-.466.808-1.854 2.687-4.656 2.687h-37.21c-1.914 0-3.698-1.03-4.655-2.686l-28.431-49.201 20.156-34.882c1.402-2.425 3.724-2.686 4.658-2.686.933 0 3.255.261 4.657 2.686l45.481 78.71c1.401 2.424.468 4.564 0 5.372zm-50.138 110.72c-.935 0-3.256-.261-4.658-2.686l-20.156-34.882 28.43-49.201c.958-1.657 2.741-2.685 4.656-2.685h37.21c2.802 0 4.19 1.878 4.656 2.686.468.808 1.401 2.948 0 5.373l-45.481 78.709c-1.402 2.425-3.724 2.687-4.657 2.687zm-24.814 55.46l20.156-34.882c1.402-2.424 3.724-2.686 4.658-2.686.933 0 3.255.262 4.657 2.686l45.481 78.71c1.401 2.424.468 4.564 0 5.372-.466.808-1.854 2.686-4.656 2.686h-37.21c-1.914 0-3.698-1.029-4.655-2.685l-28.431-49.2zm-33.959 58.487l23.293-40.318 23.293 40.318c.547.946 1.159 1.842 1.823 2.689-.664.848-1.276 1.744-1.823 2.69l-23.293 40.317-23.293-40.317c-.547-.946-1.16-1.842-1.823-2.69.664-.847 1.276-1.743 1.823-2.689zm12.627-58.487l-28.43 49.201c-.957 1.656-2.74 2.685-4.655 2.685h-37.211c-2.802 0-4.19-1.878-4.656-2.686-.467-.807-1.402-2.948 0-5.372l45.482-78.71c1.401-2.424 3.724-2.686 4.658-2.686.933 0 3.255.262 4.656 2.686l20.156 34.882zm-12.627-151.514c-.547-.946-1.16-1.842-1.823-2.69.664-.848 1.276-1.743 1.823-2.69l23.293-40.317 23.293 40.317c.547.947 1.159 1.842 1.823 2.69-.664.848-1.276 1.744-1.823 2.69l-23.293 40.317-23.293-40.317zm38.337 101.977c.55.944 1.158 1.837 1.815 2.68-.657.842-1.265 1.734-1.815 2.68l-15.044 25.876-15.044-25.877c-.55-.945-1.157-1.837-1.815-2.679.658-.843 1.265-1.736 1.815-2.68l15.044-25.878 15.044 25.878zm-149.82 5.717c-.55-.95-1.158-1.847-1.815-2.693.657-.848 1.267-1.745 1.815-2.695l39.817-68.87 39.816 68.87c.55.949 1.158 1.847 1.814 2.694-.656.847-1.265 1.744-1.814 2.694l-39.816 68.87-39.817-68.87zm-20.352 203.052c-.934 0-3.256-.262-4.657-2.686l-20.157-34.883 28.432-49.2c.957-1.657 2.74-2.686 4.654-2.686h37.21c2.802 0 4.19 1.88 4.657 2.686.467.808 1.401 2.95 0 5.374l-45.482 78.709c-1.401 2.424-3.723 2.686-4.657 2.686zm-4.657 21.265c1.4-2.424 3.723-2.686 4.657-2.686.934 0 3.256.262 4.657 2.686l45.482 78.71c1.401 2.425.467 4.565 0 5.373-.467.808-1.855 2.686-4.658 2.686h-37.209c-1.914 0-3.697-1.029-4.654-2.685l-28.432-49.201 20.157-34.883zm-45.18-9.294c-.548-.946-1.157-1.838-1.813-2.68.656-.843 1.265-1.736 1.815-2.68l15.044-25.878 15.043 25.878c.55.944 1.158 1.836 1.815 2.68-.657.842-1.265 1.734-1.815 2.68l-15.043 25.876-15.045-25.876zm-20.434 6.608c.933 0 3.257.262 4.657 2.686l20.157 34.883-28.431 49.201c-.957 1.656-2.741 2.685-4.655 2.685h-37.21c-2.802 0-4.19-1.878-4.658-2.686-.466-.808-1.4-2.948 0-5.373l45.483-78.71c1.401-2.424 3.724-2.686 4.657-2.686zm-50.14-105.348c.467-.807 1.856-2.686 4.658-2.686h37.21c1.914 0 3.699 1.029 4.656 2.686l28.43 49.2-20.156 34.883c-1.401 2.424-3.725 2.686-4.658 2.686-.933 0-3.256-.262-4.657-2.686l-45.482-78.71c-1.4-2.424-.467-4.565 0-5.373zm0-214.691c.467-.808 1.856-2.686 4.658-2.686h37.21c1.914 0 3.699 1.028 4.656 2.685l28.43 49.201-20.156 34.882c-1.401 2.425-3.725 2.687-4.658 2.687-.933 0-3.256-.262-4.657-2.687l-45.482-78.709c-1.4-2.425-.467-4.565 0-5.373zm74.954-73.152l-28.431 49.201c-.957 1.656-2.741 2.686-4.655 2.686h-37.21c-2.802 0-4.19-1.88-4.658-2.687-.466-.807-1.4-2.948 0-5.372l45.483-78.71c1.401-2.425 3.724-2.686 4.657-2.686.933 0 3.257.261 4.657 2.686l20.157 34.882zm25.71-43.49l-15.044 25.877-15.045-25.877c-.549-.945-1.158-1.837-1.814-2.68.656-.843 1.265-1.735 1.815-2.68l15.044-25.876 15.043 25.877c.55.944 1.158 1.836 1.815 2.68-.657.842-1.265 1.734-1.815 2.679zm69.886 92.69c-.467.808-1.855 2.687-4.658 2.687h-37.209c-1.914 0-3.697-1.03-4.654-2.686l-28.432-49.201 20.157-34.882c1.4-2.425 3.723-2.686 4.657-2.686.934 0 3.256.261 4.657 2.686l45.482 78.71c1.401 2.424.467 4.564 0 5.372zm-50.14 110.72c-.933 0-3.255-.261-4.656-2.686l-20.157-34.882 28.432-49.201c.957-1.657 2.74-2.685 4.654-2.685h37.21c2.802 0 4.19 1.878 4.657 2.686.467.808 1.401 2.948 0 5.373l-45.482 78.709c-1.401 2.425-3.723 2.687-4.657 2.687zm-24.813 55.46l20.157-34.882c1.4-2.424 3.723-2.686 4.657-2.686.934 0 3.256.262 4.657 2.686l45.482 78.71c1.401 2.424.467 4.564 0 5.372-.467.808-1.855 2.686-4.658 2.686h-37.209c-1.914 0-3.697-1.029-4.654-2.685l-28.432-49.2zm-33.271 58.487l23.294-40.318 23.293 40.318c.547.946 1.158 1.842 1.823 2.689-.665.848-1.277 1.744-1.823 2.69l-23.293 40.317-23.294-40.317c-.547-.946-1.16-1.842-1.823-2.69.663-.847 1.276-1.743 1.823-2.689zm12.628-58.487l-28.431 49.201c-.957 1.656-2.741 2.685-4.655 2.685h-37.21c-2.802 0-4.19-1.878-4.658-2.686-.466-.807-1.4-2.948 0-5.372l45.483-78.71c1.401-2.424 3.724-2.686 4.657-2.686.933 0 3.257.262 4.657 2.686l20.157 34.882zm-12.628-151.514c-.547-.946-1.16-1.842-1.823-2.69.663-.848 1.276-1.743 1.823-2.69l23.294-40.317 23.293 40.317c.547.947 1.158 1.842 1.823 2.69-.665.848-1.277 1.744-1.823 2.69l-23.293 40.317-23.294-40.317zm38.337 101.977c.55.944 1.158 1.837 1.815 2.68-.657.842-1.265 1.734-1.815 2.68l-15.043 25.876-15.045-25.877c-.549-.945-1.158-1.837-1.814-2.679.657-.843 1.265-1.736 1.815-2.68l15.044-25.878 15.043 25.878zm-150.508 5.717c-.55-.95-1.157-1.847-1.814-2.693.657-.848 1.264-1.745 1.814-2.695l39.817-68.87 39.817 68.87c.548.949 1.157 1.847 1.814 2.694-.658.847-1.266 1.744-1.815 2.694l-39.816 68.87-39.817-68.87zm-19.663 203.052c-.934 0-3.257-.262-4.657-2.686l-20.157-34.883 28.43-49.2c.958-1.657 2.742-2.686 4.655-2.686h37.21c2.803 0 4.19 1.88 4.657 2.686.467.808 1.401 2.95 0 5.374l-45.48 78.709c-1.403 2.424-3.725 2.686-4.658 2.686zm-4.657 21.265c1.4-2.424 3.724-2.686 4.657-2.686.933 0 3.255.262 4.657 2.686l45.481 78.71c1.401 2.425.468 4.565 0 5.373-.465.808-1.854 2.686-4.656 2.686h-37.21c-1.914 0-3.698-1.029-4.655-2.685L825.97 524.6l20.157-34.883zm-45.867-9.294c-.55-.946-1.158-1.838-1.815-2.68.657-.843 1.266-1.736 1.816-2.68l15.042-25.878 15.045 25.878c.55.944 1.158 1.836 1.815 2.68-.657.842-1.265 1.734-1.815 2.68l-15.045 25.876-15.043-25.876zm-20.436 6.608c.933 0 3.256.262 4.657 2.686l20.157 34.883-28.43 49.201c-.959 1.656-2.742 2.685-4.656 2.685h-37.21c-2.802 0-4.19-1.878-4.657-2.686-.466-.808-1.4-2.948 0-5.373l45.481-78.71c1.402-2.424 3.726-2.686 4.658-2.686zm-50.139-105.348c.467-.807 1.855-2.686 4.657-2.686h37.21c1.914 0 3.698 1.029 4.655 2.686l28.431 49.2-20.156 34.883c-1.402 2.424-3.725 2.686-4.658 2.686-.933 0-3.255-.262-4.657-2.686l-45.482-78.71c-1.4-2.424-.467-4.565 0-5.373zm0-214.691c.467-.808 1.855-2.686 4.657-2.686h37.21c1.914 0 3.698 1.028 4.655 2.685l28.431 49.201-20.156 34.882c-1.402 2.425-3.725 2.687-4.658 2.687-.933 0-3.255-.262-4.657-2.687l-45.482-78.709c-1.4-2.425-.467-4.565 0-5.373zm74.953-73.152l-28.43 49.201c-.959 1.656-2.742 2.686-4.656 2.686h-37.21c-2.802 0-4.19-1.88-4.657-2.687-.466-.807-1.4-2.948 0-5.372l45.481-78.71c1.402-2.425 3.726-2.686 4.658-2.686.933 0 3.256.261 4.657 2.686l20.157 34.882zm25.71-43.49l-15.045 25.877L800.26 50.35c-.55-.945-1.158-1.837-1.815-2.68.657-.843 1.266-1.735 1.816-2.68l15.042-25.876 15.045 25.877c.55.944 1.158 1.836 1.815 2.68-.657.842-1.265 1.734-1.815 2.679zm70.574 92.69c-.465.808-1.854 2.687-4.656 2.687h-37.21c-1.914 0-3.698-1.03-4.655-2.686L825.97 93.84l20.157-34.882c1.4-2.425 3.724-2.686 4.657-2.686.933 0 3.255.261 4.657 2.686l45.481 78.71c1.401 2.424.468 4.564 0 5.372zm-50.138 110.72c-.934 0-3.257-.261-4.657-2.686L825.97 216.19l28.43-49.201c.958-1.657 2.742-2.685 4.655-2.685h37.21c2.803 0 4.19 1.878 4.657 2.686.467.808 1.401 2.948 0 5.373l-45.48 78.709c-1.403 2.425-3.725 2.687-4.658 2.687zm-24.814 55.46l20.157-34.882c1.4-2.424 3.724-2.686 4.657-2.686.933 0 3.255.262 4.657 2.686l45.481 78.71c1.401 2.424.468 4.564 0 5.372-.465.808-1.854 2.686-4.656 2.686h-37.21c-1.914 0-3.698-1.029-4.655-2.685l-28.431-49.2zm-33.958 58.487l23.291-40.318 23.293 40.318c.547.946 1.159 1.842 1.824 2.689-.665.848-1.277 1.744-1.824 2.69l-23.293 40.317-23.291-40.317c-.548-.946-1.16-1.842-1.824-2.69.664-.847 1.276-1.743 1.824-2.689zm12.626-58.487l-28.43 49.201c-.959 1.656-2.742 2.685-4.656 2.685h-37.21c-2.802 0-4.19-1.878-4.657-2.686-.466-.807-1.4-2.948 0-5.372l45.481-78.71c1.402-2.424 3.726-2.686 4.658-2.686.933 0 3.256.262 4.657 2.686l20.157 34.882zm-12.626-151.514c-.548-.946-1.16-1.842-1.824-2.69.664-.848 1.276-1.743 1.824-2.69l23.291-40.317 23.293 40.317c.547.947 1.159 1.842 1.824 2.69-.665.848-1.277 1.744-1.824 2.69l-23.293 40.317-23.291-40.317zm38.336 101.977c.55.944 1.158 1.837 1.815 2.68-.657.842-1.265 1.734-1.815 2.68l-15.045 25.876-15.043-25.877c-.55-.945-1.158-1.837-1.815-2.679.657-.843 1.266-1.736 1.816-2.68l15.042-25.878 15.045 25.878zm-149.82 5.717c-.55-.95-1.159-1.847-1.815-2.693.657-.848 1.265-1.745 1.815-2.695l39.816-68.87 39.816 68.87c.55.949 1.158 1.847 1.815 2.694-.657.847-1.265 1.744-1.815 2.694l-39.816 68.87-39.816-68.87zm-20.352 203.052c-.934 0-3.257-.262-4.657-2.686l-20.157-34.883 28.43-49.2c.958-1.657 2.741-2.686 4.655-2.686h37.21c2.802 0 4.19 1.88 4.658 2.686.466.808 1.401 2.95 0 5.374l-45.482 78.709c-1.402 2.424-3.724 2.686-4.657 2.686zm-4.657 21.265c1.4-2.424 3.723-2.686 4.657-2.686.933 0 3.256.262 4.657 2.686l45.482 78.71c1.4 2.425.466 4.565 0 5.373-.467.808-1.855 2.686-4.657 2.686h-37.21c-1.914 0-3.698-1.029-4.655-2.685L635.362 524.6l20.157-34.883zm-45.18-9.294c-.548-.946-1.157-1.838-1.814-2.68.657-.843 1.267-1.736 1.815-2.68l15.045-25.878 15.044 25.878c.548.944 1.158 1.836 1.814 2.68-.656.842-1.266 1.734-1.814 2.68l-15.044 25.876-15.045-25.876zm-20.434 6.608c.933 0 3.256.262 4.656 2.686l20.157 34.883-28.43 49.201c-.958 1.656-2.74 2.685-4.656 2.685h-37.209c-2.802 0-4.19-1.878-4.657-2.686-.466-.808-1.402-2.948 0-5.373l45.482-78.71c1.401-2.424 3.723-2.686 4.657-2.686zm-50.14-105.348c.467-.807 1.856-2.686 4.658-2.686h37.21c1.914 0 3.697 1.029 4.655 2.686l28.43 49.2-20.157 34.883c-1.4 2.424-3.723 2.686-4.656 2.686-.934 0-3.256-.262-4.657-2.686l-45.482-78.71c-1.402-2.424-.466-4.565 0-5.373zm0-214.691c.467-.808 1.856-2.686 4.658-2.686h37.21c1.914 0 3.697 1.028 4.655 2.685l28.43 49.201-20.157 34.882c-1.4 2.425-3.723 2.687-4.656 2.687-.934 0-3.256-.262-4.657-2.687l-45.482-78.709c-1.402-2.425-.466-4.565 0-5.373zm74.953-73.152l-28.43 49.201c-.958 1.656-2.74 2.686-4.656 2.686h-37.209c-2.802 0-4.19-1.88-4.657-2.687-.466-.807-1.402-2.948 0-5.372l45.482-78.71c1.401-2.425 3.723-2.686 4.657-2.686.933 0 3.256.261 4.656 2.686l20.157 34.882zm25.71-43.49l-15.043 25.877L610.34 50.35c-.549-.945-1.158-1.837-1.815-2.68.657-.843 1.267-1.735 1.815-2.68l15.045-25.876 15.044 25.877c.548.944 1.158 1.836 1.814 2.68-.656.842-1.266 1.734-1.814 2.679zm69.887 92.69c-.467.808-1.855 2.687-4.657 2.687h-37.21c-1.914 0-3.698-1.03-4.655-2.686L635.362 93.84l20.157-34.882c1.4-2.425 3.723-2.686 4.657-2.686.933 0 3.256.261 4.657 2.686l45.482 78.71c1.4 2.424.466 4.564 0 5.372zm-50.14 110.72c-.933 0-3.256-.261-4.656-2.686l-20.157-34.882 28.43-49.201c.958-1.657 2.741-2.685 4.655-2.685h37.21c2.802 0 4.19 1.878 4.658 2.686.466.808 1.401 2.948 0 5.373l-45.482 78.709c-1.402 2.425-3.724 2.687-4.657 2.687zm-24.813 55.46l20.157-34.882c1.4-2.424 3.723-2.686 4.657-2.686.933 0 3.256.262 4.657 2.686l45.482 78.71c1.4 2.424.466 4.564 0 5.372-.467.808-1.855 2.686-4.657 2.686h-37.21c-1.914 0-3.698-1.029-4.655-2.685l-28.431-49.2zm-33.27 58.487l23.293-40.318 23.293 40.318c.546.946 1.159 1.842 1.822 2.689-.663.848-1.276 1.744-1.823 2.69l-23.292 40.317-23.294-40.317c-.546-.946-1.159-1.842-1.823-2.69.664-.847 1.277-1.743 1.823-2.689zm12.626-58.487l-28.43 49.201c-.958 1.656-2.74 2.685-4.656 2.685h-37.209c-2.802 0-4.19-1.878-4.657-2.686-.466-.807-1.402-2.948 0-5.372l45.482-78.71c1.401-2.424 3.723-2.686 4.657-2.686.933 0 3.256.262 4.656 2.686l20.157 34.882zm-12.627-151.514c-.546-.946-1.159-1.842-1.823-2.69.664-.848 1.277-1.743 1.823-2.69l23.294-40.317 23.293 40.317c.546.947 1.159 1.842 1.822 2.69-.663.848-1.276 1.744-1.823 2.69l-23.292 40.317-23.294-40.317zm38.338 101.977c.548.944 1.158 1.837 1.814 2.68-.656.842-1.266 1.734-1.814 2.68l-15.045 25.876-15.045-25.877c-.549-.945-1.158-1.837-1.814-2.679.657-.843 1.266-1.736 1.815-2.68l15.044-25.878 15.045 25.878zm-150.51 5.717c-.55-.95-1.157-1.847-1.814-2.693.657-.848 1.265-1.745 1.815-2.695l39.816-68.87 39.817 68.87c.549.949 1.157 1.847 1.814 2.694-.657.847-1.265 1.744-1.814 2.694l-39.817 68.87-39.817-68.87zm-19.664 203.052c-.933 0-3.255-.262-4.657-2.686l-20.156-34.883 28.43-49.2c.958-1.657 2.741-2.686 4.655-2.686h37.211c2.802 0 4.19 1.88 4.657 2.686.466.808 1.401 2.95 0 5.374l-45.482 78.709c-1.402 2.424-3.724 2.686-4.658 2.686zm-4.657 21.265c1.402-2.424 3.725-2.686 4.657-2.686.934 0 3.256.262 4.658 2.686l45.482 78.71c1.401 2.425.467 4.565 0 5.373-.466.808-1.855 2.686-4.656 2.686h-37.211c-1.914 0-3.698-1.029-4.656-2.685l-28.43-49.201 20.156-34.883zm-45.865-9.294c-.55-.946-1.158-1.838-1.815-2.68.657-.843 1.265-1.736 1.815-2.68l15.044-25.878 15.043 25.878c.55.944 1.159 1.836 1.815 2.68-.656.842-1.264 1.734-1.815 2.68l-15.043 25.876-15.044-25.876zm-20.436 6.608c.934 0 3.256.262 4.657 2.686l20.157 34.883L395.68 573.8c-.957 1.656-2.74 2.685-4.655 2.685h-37.21c-2.802 0-4.19-1.878-4.657-2.686-.467-.808-1.401-2.948 0-5.373l45.482-78.71c1.402-2.424 3.724-2.686 4.657-2.686zm-50.138-105.348c.466-.807 1.853-2.686 4.656-2.686h37.21c1.914 0 3.698 1.029 4.655 2.686l28.43 49.2-20.156 34.883c-1.401 2.424-3.723 2.686-4.657 2.686-.933 0-3.255-.262-4.657-2.686l-45.481-78.71c-1.402-2.424-.468-4.565 0-5.373zm0-214.691c.466-.808 1.853-2.686 4.656-2.686h37.21c1.914 0 3.698 1.028 4.655 2.685l28.43 49.201-20.156 34.882c-1.401 2.425-3.723 2.687-4.657 2.687-.933 0-3.255-.262-4.657-2.687l-45.481-78.709c-1.402-2.425-.468-4.565 0-5.373zm74.952-73.152L395.68 143.04c-.957 1.656-2.74 2.686-4.655 2.686h-37.21c-2.802 0-4.19-1.88-4.657-2.687-.467-.807-1.401-2.948 0-5.372l45.482-78.71c1.402-2.425 3.724-2.686 4.657-2.686.934 0 3.256.261 4.657 2.686l20.157 34.882zm25.71-43.49l-15.044 25.877-15.044-25.877c-.55-.945-1.158-1.837-1.815-2.68.657-.843 1.265-1.735 1.815-2.68l15.044-25.876L449.82 44.99c.55.944 1.159 1.836 1.815 2.68-.656.842-1.264 1.734-1.815 2.679zm70.574 92.69c-.466.808-1.855 2.687-4.656 2.687h-37.211c-1.914 0-3.698-1.03-4.656-2.686l-28.43-49.201 20.156-34.882c1.402-2.425 3.725-2.686 4.657-2.686.934 0 3.256.261 4.658 2.686l45.482 78.71c1.401 2.424.467 4.564 0 5.372zm-50.14 110.72c-.933 0-3.255-.261-4.657-2.686l-20.156-34.882 28.43-49.201c.958-1.657 2.741-2.685 4.655-2.685h37.211c2.802 0 4.19 1.878 4.657 2.686.466.808 1.401 2.948 0 5.373l-45.482 78.709c-1.402 2.425-3.724 2.687-4.658 2.687zm-24.813 55.46l20.156-34.882c1.402-2.424 3.725-2.686 4.657-2.686.934 0 3.256.262 4.658 2.686l45.482 78.71c1.401 2.424.467 4.564 0 5.372-.466.808-1.855 2.686-4.656 2.686h-37.211c-1.914 0-3.698-1.029-4.656-2.685l-28.43-49.2zm-33.958 58.487l23.293-40.318 23.292 40.318c.547.946 1.16 1.842 1.824 2.689-.665.848-1.277 1.744-1.824 2.69l-23.292 40.317-23.293-40.317c-.547-.946-1.16-1.842-1.824-2.69.666-.847 1.277-1.743 1.824-2.689zm12.627-58.487L395.68 358.42c-.957 1.656-2.74 2.685-4.655 2.685h-37.21c-2.802 0-4.19-1.878-4.657-2.686-.467-.807-1.401-2.948 0-5.372l45.482-78.71c1.402-2.424 3.724-2.686 4.657-2.686.934 0 3.256.262 4.657 2.686l20.157 34.882zm-12.627-151.514c-.547-.946-1.16-1.842-1.824-2.69.666-.848 1.277-1.743 1.824-2.69l23.293-40.317 23.292 40.317c.547.947 1.16 1.842 1.824 2.69-.665.848-1.277 1.744-1.824 2.69l-23.292 40.317-23.293-40.317zm38.336 101.977c.55.944 1.159 1.837 1.815 2.68-.656.842-1.264 1.734-1.815 2.68l-15.043 25.876-15.044-25.877c-.55-.945-1.158-1.837-1.815-2.679.657-.843 1.265-1.736 1.815-2.68l15.044-25.878 15.043 25.878zM300 265.399c-.549-.95-1.158-1.847-1.813-2.693.656-.848 1.265-1.745 1.814-2.695l39.816-68.87 39.817 68.87c.55.949 1.158 1.847 1.815 2.694-.657.847-1.266 1.744-1.815 2.694l-39.817 68.87-39.817-68.87zm-20.35 203.052c-.934 0-3.257-.262-4.657-2.686l-20.157-34.883 28.43-49.2c.957-1.657 2.741-2.686 4.656-2.686h37.21c2.802 0 4.19 1.88 4.656 2.686.468.808 1.401 2.95 0 5.374l-45.481 78.709c-1.402 2.424-3.724 2.686-4.658 2.686zm-4.657 21.265c1.4-2.424 3.723-2.686 4.656-2.686.934 0 3.256.262 4.658 2.686l45.481 78.71c1.401 2.425.468 4.565 0 5.373-.467.808-1.854 2.686-4.657 2.686h-37.209c-1.914 0-3.699-1.029-4.656-2.685l-28.43-49.201 20.157-34.883zm-45.18-9.294c-.549-.946-1.157-1.838-1.814-2.68.657-.843 1.265-1.736 1.814-2.68l15.045-25.878 15.044 25.878c.55.944 1.158 1.836 1.815 2.68-.657.842-1.266 1.734-1.815 2.68l-15.044 25.876-15.045-25.876zm-20.434 6.608c.934 0 3.255.262 4.657 2.686L234.19 524.6l-28.43 49.201c-.958 1.656-2.741 2.685-4.656 2.685h-37.21c-2.8 0-4.19-1.878-4.657-2.686-.466-.808-1.4-2.948 0-5.373l45.483-78.71c1.4-2.424 3.723-2.686 4.657-2.686zm-50.14-105.348c.467-.807 1.855-2.686 4.657-2.686h37.21c1.915 0 3.698 1.029 4.655 2.686l28.431 49.2-20.156 34.883c-1.402 2.424-3.723 2.686-4.657 2.686-.934 0-3.256-.262-4.657-2.686l-45.482-78.71c-1.402-2.424-.467-4.565 0-5.373zm0-214.691c.467-.808 1.855-2.686 4.657-2.686h37.21c1.915 0 3.698 1.028 4.655 2.685l28.431 49.201-20.156 34.882c-1.402 2.425-3.723 2.687-4.657 2.687-.934 0-3.256-.262-4.657-2.687l-45.482-78.709c-1.402-2.425-.467-4.565 0-5.373zm74.953-73.152l-28.43 49.201c-.958 1.656-2.741 2.686-4.656 2.686h-37.21c-2.8 0-4.19-1.88-4.657-2.687-.466-.807-1.4-2.948 0-5.372l45.483-78.71c1.4-2.425 3.723-2.686 4.657-2.686.934 0 3.255.261 4.657 2.686l20.156 34.882zm25.71-43.49l-15.044 25.877-15.045-25.877c-.549-.945-1.157-1.837-1.814-2.68.657-.843 1.265-1.735 1.814-2.68l15.045-25.876L259.9 44.99c.55.944 1.158 1.836 1.815 2.68-.657.842-1.266 1.734-1.815 2.679zm69.886 92.69c-.467.808-1.854 2.687-4.657 2.687h-37.209c-1.914 0-3.699-1.03-4.656-2.686l-28.43-49.201 20.157-34.882c1.4-2.425 3.723-2.686 4.656-2.686.934 0 3.256.261 4.658 2.686l45.481 78.71c1.401 2.424.468 4.564 0 5.372zm-50.139 110.72c-.933 0-3.256-.261-4.656-2.686l-20.157-34.882 28.43-49.201c.957-1.657 2.741-2.685 4.656-2.685h37.21c2.802 0 4.19 1.878 4.656 2.686.468.808 1.401 2.948 0 5.373l-45.481 78.709c-1.402 2.425-3.724 2.687-4.658 2.687zm-24.813 55.46l20.157-34.882c1.4-2.424 3.723-2.686 4.656-2.686.934 0 3.256.262 4.658 2.686l45.481 78.71c1.401 2.424.468 4.564 0 5.372-.467.808-1.854 2.686-4.657 2.686h-37.209c-1.914 0-3.699-1.029-4.656-2.685l-28.43-49.2zm-33.272 58.487l23.294-40.318 23.294 40.318c.546.946 1.16 1.842 1.822 2.689-.663.848-1.276 1.744-1.822 2.69l-23.294 40.317-23.294-40.317c-.546-.946-1.158-1.842-1.822-2.69.664-.847 1.276-1.743 1.822-2.689zm12.628-58.487l-28.43 49.201c-.958 1.656-2.741 2.685-4.656 2.685h-37.21c-2.8 0-4.19-1.878-4.657-2.686-.466-.807-1.4-2.948 0-5.372l45.483-78.71c1.4-2.424 3.723-2.686 4.657-2.686.934 0 3.255.262 4.657 2.686l20.156 34.882zm-12.628-151.514c-.546-.946-1.158-1.842-1.822-2.69.664-.848 1.276-1.743 1.822-2.69l23.294-40.317 23.294 40.317c.546.947 1.16 1.842 1.822 2.69-.663.848-1.276 1.744-1.822 2.69l-23.294 40.317-23.294-40.317zm38.338 101.977c.55.944 1.158 1.837 1.815 2.68-.657.842-1.266 1.734-1.815 2.68l-15.044 25.876-15.045-25.877c-.549-.945-1.157-1.837-1.814-2.679.657-.843 1.265-1.736 1.814-2.68l15.045-25.878 15.044 25.878zm-150.508 5.717c-.55-.95-1.158-1.847-1.815-2.693.657-.848 1.266-1.745 1.815-2.695l39.817-68.87 39.816 68.87c.549.949 1.158 1.847 1.814 2.694-.657.847-1.265 1.744-1.814 2.694l-39.816 68.87-39.817-68.87zM89.728 468.451c-.933 0-3.255-.262-4.657-2.686l-20.156-34.883 28.431-49.2c.956-1.657 2.74-2.686 4.654-2.686h37.211c2.802 0 4.19 1.88 4.656 2.686.468.808 1.402 2.95 0 5.374l-45.481 78.709c-1.401 2.424-3.724 2.686-4.658 2.686zm-4.657 21.265c1.402-2.424 3.724-2.686 4.657-2.686.934 0 3.257.262 4.658 2.686l45.48 78.71c1.403 2.425.469 4.565 0 5.373-.465.808-1.853 2.686-4.655 2.686h-37.21c-1.914 0-3.699-1.029-4.655-2.685L64.916 524.6l20.155-34.883zm-15.778-14.654c.55.944 1.158 1.836 1.815 2.68-.657.842-1.265 1.734-1.815 2.68L54.25 506.298l-15.045-25.876c-.549-.946-1.157-1.838-1.814-2.68.657-.843 1.265-1.736 1.814-2.68l15.045-25.878 15.043 25.878zm8.25-107.356c.547.946 1.158 1.842 1.823 2.689-.665.848-1.276 1.744-1.823 2.69L54.25 413.402l-23.294-40.317c-.547-.946-1.16-1.842-1.823-2.69.664-.847 1.276-1.743 1.823-2.689l23.294-40.318 23.293 40.318zm-8.25-108.024c.55.944 1.158 1.837 1.815 2.68-.657.842-1.265 1.734-1.815 2.68L54.25 290.917 39.205 265.04c-.549-.945-1.157-1.837-1.814-2.679.657-.843 1.265-1.736 1.814-2.68l15.045-25.878 15.043 25.878zm8.25-107.357c.547.947 1.158 1.842 1.823 2.69-.665.848-1.276 1.744-1.823 2.69L54.25 198.022l-23.294-40.317c-.547-.946-1.16-1.842-1.823-2.69.664-.848 1.276-1.743 1.823-2.69l23.294-40.317 23.293 40.317zM69.293 50.35L54.25 76.226 39.205 50.35c-.549-.945-1.157-1.837-1.814-2.68.657-.843 1.265-1.735 1.814-2.68L54.25 19.114 69.293 44.99c.55.944 1.158 1.836 1.815 2.68-.657.842-1.265 1.734-1.815 2.679zm70.574 92.69c-.466.808-1.854 2.687-4.656 2.687h-37.21c-1.914 0-3.699-1.03-4.655-2.686L64.916 93.84 85.07 58.957c1.402-2.425 3.724-2.686 4.657-2.686.934 0 3.257.261 4.658 2.686l45.48 78.71c1.403 2.424.469 4.564 0 5.372zm0 210.008c1.402 2.424.468 4.564 0 5.372-.466.808-1.854 2.686-4.656 2.686h-37.21c-1.914 0-3.699-1.029-4.655-2.685l-28.43-49.2 20.155-34.883c1.402-2.424 3.724-2.686 4.657-2.686.934 0 3.257.262 4.658 2.686l45.48 78.71zM89.728 253.76c-.933 0-3.255-.262-4.657-2.687L64.915 216.19l28.431-49.201c.956-1.657 2.74-2.685 4.654-2.685h37.211c2.802 0 4.19 1.878 4.656 2.686.468.808 1.402 2.948 0 5.373l-45.481 78.709c-1.401 2.425-3.724 2.687-4.658 2.687zM1471.37 137.667c1.401 2.424.467 4.564 0 5.372-.467.808-1.855 2.687-4.657 2.687h-37.21c-1.914 0-3.698-1.03-4.655-2.686l-28.43-49.201 20.155-34.882c1.402-2.425 3.724-2.686 4.657-2.686.934 0 3.257.261 4.657 2.686l45.483 78.71zm15.47 43.105c4.215-7.3 4.215-16.017 0-23.317-.549-.95-1.155-1.847-1.81-2.693.655-.847 1.261-1.743 1.81-2.692 4.215-7.3 4.214-16.018 0-23.318l-45.548-78.896c-.548-.95-1.155-1.846-1.81-2.692.655-.847 1.263-1.744 1.81-2.693l45.548-78.896c4.215-7.3 4.215-16.018 0-23.318-.549-.949-1.155-1.847-1.81-2.692.655-.847 1.261-1.744 1.81-2.693 4.215-7.3 4.214-16.017 0-23.318l-45.548-78.896c-4.214-7.3-11.764-11.658-20.193-11.658-8.428 0-15.976 4.358-20.191 11.658l-15.01 26-15.01-26c-4.214-7.3-11.762-11.658-20.192-11.658-8.428 0-15.978 4.358-20.192 11.658l-39.734 68.827-39.734-68.827c-4.215-7.3-11.763-11.658-20.193-11.658-8.429 0-15.976 4.358-20.192 11.658l-15.01 26-15.008-26c-4.216-7.3-11.763-11.658-20.192-11.658-8.43 0-15.979 4.358-20.194 11.658l-39.733 68.827-39.735-68.827c-4.214-7.3-11.763-11.658-20.192-11.658s-15.977 4.358-20.192 11.658l-15.01 26-15.01-26c-4.214-7.3-11.762-11.658-20.192-11.658-8.428 0-15.977 4.358-20.192 11.658l-39.734 68.827-39.734-68.827C866.307-172.642 858.76-177 850.33-177c-8.43 0-15.977 4.358-20.193 11.658l-15.01 26-15.008-26c-4.215-7.3-11.763-11.658-20.193-11.658-8.43 0-15.977 4.358-20.193 11.658L720-96.515l-39.734-68.827c-4.215-7.3-11.764-11.658-20.192-11.658-8.43 0-15.979 4.358-20.193 11.658l-15.01 26-15.01-26c-4.213-7.3-11.763-11.658-20.191-11.658-8.43 0-15.977 4.358-20.192 11.658l-39.735 68.827-39.734-68.827c-4.215-7.3-11.763-11.658-20.193-11.658-8.43 0-15.976 4.358-20.192 11.658l-15.009 26-15.01-26c-4.214-7.3-11.762-11.658-20.192-11.658-8.429 0-15.977 4.358-20.192 11.658l-39.734 68.827-39.735-68.827c-4.213-7.3-11.763-11.658-20.192-11.658s-15.977 4.358-20.192 11.658l-15.01 26-15.009-26c-4.214-7.3-11.763-11.658-20.191-11.658-8.43 0-15.98 4.358-20.194 11.658l-39.733 68.827-39.735-68.827C105.281-172.642 97.733-177 89.304-177c-8.43 0-15.977 4.358-20.192 11.658l-15.01 26-15.009-26C34.878-172.642 27.33-177 18.901-177c-8.43 0-15.978 4.358-20.192 11.658L-46.84-86.446c-4.215 7.3-4.215 16.018 0 23.318.548.949 1.155 1.846 1.81 2.692-.655.846-1.262 1.743-1.81 2.693-4.215 7.301-4.215 16.017 0 23.318L-1.291 44.47c.548.949 1.154 1.845 1.81 2.692-.656.847-1.263 1.744-1.81 2.693l-45.548 78.896c-4.215 7.3-4.215 16.017 0 23.318.548.95 1.155 1.845 1.81 2.692-.655.846-1.262 1.743-1.81 2.693-4.215 7.3-4.215 16.017 0 23.317l45.548 78.897c.548.948 1.154 1.845 1.81 2.692-.656.846-1.263 1.743-1.81 2.692L-46.84 343.95c-4.215 7.3-4.215 16.018 0 23.318.548.95 1.155 1.846 1.81 2.692-.655.847-1.262 1.744-1.81 2.693-4.215 7.3-4.215 16.017 0 23.318l45.548 78.896c.548.948 1.154 1.846 1.81 2.692-.656.847-1.263 1.744-1.81 2.694l-45.548 78.894c-4.215 7.302-4.215 16.018 0 23.319.548.948 1.155 1.845 1.81 2.692-.655.846-1.262 1.743-1.81 2.693-4.215 7.3-4.215 16.017 0 23.317l45.548 78.897c4.214 7.3 11.762 11.658 20.192 11.658s15.977-4.358 20.192-11.658l15.01-25.999 15.009 25.999c4.215 7.3 11.763 11.658 20.192 11.658 8.43 0 15.977-4.358 20.193-11.658l39.734-68.826 39.734 68.826c4.214 7.3 11.763 11.658 20.193 11.658 8.428 0 15.977-4.358 20.191-11.658l15.01-25.999 15.01 25.999c4.214 7.3 11.762 11.658 20.191 11.658 8.429 0 15.979-4.358 20.193-11.658l39.734-68.826 39.734 68.826c4.215 7.3 11.763 11.658 20.192 11.658 8.43 0 15.978-4.358 20.193-11.658l15.01-25.999 15.008 25.999c4.216 7.3 11.763 11.658 20.192 11.658 8.43 0 15.978-4.358 20.194-11.658l39.734-68.826 39.734 68.826c4.215 7.3 11.763 11.658 20.192 11.658 8.428 0 15.978-4.358 20.192-11.658l15.01-25.999 15.01 25.999c4.213 7.3 11.762 11.658 20.192 11.658 8.428 0 15.977-4.358 20.192-11.658L720 621.237l39.733 68.827c4.216 7.3 11.763 11.658 20.193 11.658 8.43 0 15.978-4.358 20.194-11.658l15.007-25.999 15.01 25.999c4.215 7.3 11.764 11.658 20.193 11.658 8.43 0 15.977-4.358 20.192-11.658l39.735-68.826 39.734 68.826c4.214 7.3 11.763 11.658 20.191 11.658 8.43 0 15.978-4.358 20.193-11.658l15.01-25.999 15.01 25.999c4.213 7.3 11.762 11.658 20.19 11.658 8.43 0 15.979-4.358 20.193-11.658l39.735-68.826 39.733 68.826c4.215 7.3 11.764 11.658 20.194 11.658 8.429 0 15.976-4.358 20.192-11.658l15.009-25.999 15.009 25.999c4.215 7.3 11.763 11.658 20.192 11.658 8.43 0 15.978-4.358 20.194-11.658l39.733-68.826 39.735 68.826c4.213 7.3 11.763 11.658 20.191 11.658 8.43 0 15.978-4.358 20.193-11.658l15.01-25.999 15.009 25.999c4.215 7.3 11.763 11.658 20.191 11.658 8.43 0 15.979-4.358 20.193-11.658l45.548-78.897c4.215-7.3 4.215-16.017 0-23.317-.549-.949-1.155-1.847-1.81-2.693.655-.847 1.261-1.744 1.81-2.692 4.215-7.3 4.214-16.017 0-23.319l-45.548-78.894c-.548-.95-1.155-1.847-1.81-2.693.655-.847 1.263-1.744 1.81-2.693l45.548-78.896c4.215-7.301 4.215-16.018 0-23.318-.549-.948-1.155-1.846-1.81-2.692.655-.847 1.261-1.743 1.81-2.693 4.215-7.3 4.214-16.017 0-23.318l-45.548-78.896c-.548-.949-1.155-1.845-1.81-2.691.655-.847 1.263-1.744 1.81-2.693l45.548-78.897z" opacity=".05"/>
</svg>
