<svg xmlns="http://www.w3.org/2000/svg" width="188" height="177" viewBox="0 0 188 177">
    <g fill="#4C7540" fill-rule="evenodd">
        <path d="M183 169.187c0 2.467-1.646 4.053-4.41 5.698-2.233 1.175-5.232 2.056-9.053 2.056-10.465 0-20.93-8.576-20.93-20.97 0-12.395 10.583-20.971 20.754-20.971 3.997 0 7.055.94 9.289 2.114 2.587 1.586 4.35 3.23 4.35 5.64 0 2.819-2.234 4.346-4.469 4.346-1.821 0-3.056-.88-3.644-1.233-.411-.177-2.117-1.704-5.35-1.704-5.938 0-10.818 5.287-10.818 11.807 0 6.52 4.762 11.808 10.936 11.808 3.057 0 4.82-1.528 5.232-1.704.588-.353 1.763-1.234 3.644-1.234 2.235 0 4.469 1.528 4.469 4.347m-40.575-29.019v32.015c0 3.114-2 4.758-4.586 4.758-2.116 0-3.821-1.175-4.997-2.82l-15.404-21.264v19.15c0 2.643-2.175 4.934-4.88 4.934-2.763 0-4.996-2.29-4.996-4.934v-32.073c0-3.055 1.998-4.7 4.643-4.7 2.058 0 3.764 1.116 4.94 2.82l15.403 21.206v-19.092c0-2.642 2.175-4.934 4.88-4.934 2.822 0 4.997 2.292 4.997 4.934m-44.74 0v31.898c0 2.643-2.293 4.934-4.939 4.934-2.704 0-4.938-2.29-4.938-4.934v-31.898c0-2.642 2.234-4.934 4.938-4.934 2.646 0 4.938 2.292 4.938 4.934m-19.753 0v31.898c0 2.643-2.292 4.934-4.938 4.934-2.705 0-4.94-2.29-4.94-4.934v-31.898c0-2.642 2.235-4.934 4.94-4.934 2.646 0 4.938 2.292 4.938 4.934m-16.021-.586c0 .998-.411 1.997-.646 2.82l-9.407 30.897c-.765 2.467-2.705 3.583-5.115 3.583s-4.174-1.116-5.056-3.583l-7.702-21.147-7.76 21.147c-.882 2.467-2.646 3.583-5.057 3.583-2.41 0-4.35-1.116-5.114-3.583l-9.407-30.898c-.293-.822-.646-1.821-.646-2.82 0-2.349 2.057-4.347 4.703-4.347 2.117 0 4.115 1.234 4.644 3.114l6.174 23.32 8.113-23.32c.881-2.35 2.528-3.114 4.292-3.114 1.646 0 3.469.764 4.35 3.114l8.113 23.32 6.174-23.32c.529-1.88 2.528-3.114 4.644-3.114 2.646 0 4.703 1.998 4.703 4.348M171.124 23.62l-41.127 71.65c-1.267 2.206-3.367 2.445-4.212 2.445-.844 0-2.944-.239-4.211-2.446l-18.226-31.752 25.708-44.788c.866-1.508 2.478-2.444 4.21-2.444h33.647c2.534 0 3.788 1.71 4.21 2.446.423.734 1.268 2.683 0 4.89zM66.425 95.27c-1.267 2.206-3.366 2.445-4.21 2.445-.845 0-2.945-.239-4.212-2.446L16.876 23.621c-1.267-2.207-.422-4.156 0-4.89.422-.736 1.677-2.446 4.211-2.446h33.647c1.731 0 3.344.936 4.21 2.444l25.708 44.788-18.227 31.752zm118.72-84.682C181.34 3.958 174.525 0 166.914 0h-33.647c-7.497 0-14.484 4.056-18.231 10.587L94 47.23 72.965 10.587C69.217 4.057 62.231 0 54.734 0H21.087C13.476 0 6.66 3.957 2.854 10.588c-3.805 6.63-3.805 14.545 0 21.176l41.128 71.648C47.787 110.042 54.603 114 62.214 114c7.611 0 14.427-3.959 18.233-10.588L94 79.802l13.553 23.61c3.805 6.63 10.621 10.588 18.232 10.588 7.612 0 14.428-3.959 18.234-10.588l41.127-71.648c3.805-6.63 3.805-14.548 0-21.176z"/>
    </g>
</svg>
